<?xml version="1.0" encoding="UTF-8"?>
<!DOCTYPE svg PUBLIC "-//W3C//DTD SVG 1.1//EN" "http://www.w3.org/Graphics/SVG/1.1/DTD/svg11.dtd">
<!-- Creator: CorelDRAW X6 -->
<svg xmlns="http://www.w3.org/2000/svg" xml:space="preserve" width="0.753811in" height="0.376591in" version="1.1" style="shape-rendering:geometricPrecision; text-rendering:geometricPrecision; image-rendering:optimizeQuality; fill-rule:evenodd; clip-rule:evenodd"
viewBox="0 0 201 101"
 xmlns:xlink="http://www.w3.org/1999/xlink">
 <defs>
  <style type="text/css">
   <![CDATA[
    .str0 {stroke:#FEFEFE;stroke-width:0.801137}
    .fil4 {fill:#373435}
    .fil6 {fill:#F7ADAF}
    .fil5 {fill:#FEFEFE}
    .fil0 {fill:#663399}
    .fil2 {fill:url(#id2)}
    .fil3 {fill:url(#id3)}
    .fil1 {fill:url(#id4)}
   ]]>
  </style>
    <mask id="id0">
  <radialGradient id="id1" gradientUnits="userSpaceOnUse" cx="45.4051" cy="28.6138" r="109.285" fx="45.4051" fy="28.6138">
   <stop offset="0" style="stop-opacity:0; stop-color:white"/>
   <stop offset="1" style="stop-opacity:1; stop-color:white"/>
  </radialGradient>
     <rect style="fill:url(#id1)" x="9" width="183" height="101"/>
    </mask>
  <linearGradient id="id2" gradientUnits="userSpaceOnUse" x1="80.1179" y1="94.7791" x2="80.1179" y2="0.947276">
   <stop offset="0" style="stop-color:#57C1AC"/>
   <stop offset="1" style="stop-color:#FEFEFE"/>
  </linearGradient>
  <linearGradient id="id3" gradientUnits="userSpaceOnUse" x1="56.6694" y1="59.159" x2="189.04" y2="31.2359">
   <stop offset="0" style="stop-color:#D2AE6D"/>
   <stop offset="0.901961" style="stop-color:#E8D6B5"/>
   <stop offset="1" style="stop-color:#FEFEFE"/>
  </linearGradient>
  <radialGradient id="id4" gradientUnits="objectBoundingBox" cx="50%" cy="49.9983%" r="50.0017%" fx="50%" fy="49.9983%">
   <stop offset="0" style="stop-color:#FEFEFE"/>
   <stop offset="1" style="stop-color:#BDBFC1"/>
  </radialGradient>
 </defs>
 <g id="Layer_x0020_1">
  <metadata id="CorelCorpID_0Corel-Layer"/>
  <g id="_1492814096">
   <path class="fil0" d="M27 4l148 0c10,0 18,4 18,9l0 73c0,5 -8,9 -18,9l-148 0c-10,0 -18,-4 -18,-9l0 -73c0,-5 8,-9 18,-9z"/>
   <path class="fil0 str0" style="mask:url(#id0)" d="M71 31c-1,-1 -4,-3 -4,-4 0,-1 0,-1 1,-2 1,0 2,-1 2,-2l1 -1c-1,-1 -2,-1 -2,-2 -1,-1 -1,-2 0,-2l3 -2c1,-1 1,-1 2,-1 1,-1 2,-2 3,-1l4 4c0,0 1,1 1,1 0,1 -2,3 -4,4 1,1 1,1 2,2 0,0 1,1 1,1 0,1 -3,4 -5,5l51 -5c0,0 1,0 1,0l24 -2c1,0 2,1 2,2l-1 2 6 -1c0,0 1,0 1,0l17 -2c1,0 2,0 2,1 1,-1 1,-2 2,-3 2,-1 4,-1 6,1 4,3 4,12 5,16l0 3c0,1 0,3 0,4l0 4c0,2 0,5 -1,7 -1,2 -1,5 -3,6 -4,3 -7,-1 -8,-4 0,1 -1,1 -1,1l-14 2c-3,0 -5,1 -8,1 -3,0 -5,1 -8,1 0,0 -1,0 -1,0 -2,0 -4,-2 -5,-3 0,0 0,1 0,1l-2 3c0,0 -1,1 -1,1 -3,0 -5,-1 -7,-3 -1,-1 -1,-2 -1,-2l-10 1c-3,0 -6,1 -10,1 -2,0 -4,-3 -5,-5 0,1 -1,1 -2,1 0,0 -1,0 -1,0l-4 0c1,0 2,1 2,2 0,1 -4,7 -5,8 0,0 0,0 -1,0 -3,0 -6,-1 -8,-4 -1,-2 -1,-3 0,-5l-4 0c-2,0 -4,-3 -4,-4 -1,1 -4,1 -5,1l-1 0c0,2 -1,4 -1,5 0,1 0,2 0,3 0,0 1,0 1,1 1,0 1,1 1,2 0,1 -1,2 -2,3 0,0 0,0 0,0l-2 3c0,0 -1,1 -1,1 -3,0 -5,-1 -7,-3 -1,-2 -1,-2 -1,-4l2 -9c-1,0 -3,0 -4,0 -1,3 -2,6 -3,8 -5,7 -13,11 -22,12 -3,0 -6,0 -9,-1 0,2 0,3 -1,5l-2 13c0,2 2,1 3,3 -3,-2 -6,-3 -9,-3 -1,0 -3,-1 -5,-1l9 -51 -4 0c-1,0 -2,-1 -2,-2l1 -6c0,-1 1,-1 1,-1l55 -6zm-28 40c2,-1 4,-6 4,-9 1,-5 0,-9 -4,-10 2,2 3,5 3,10 0,3 -1,7 -3,9zm-16 -5c0,1 0,2 0,3m51 -23c0,-1 1,-2 1,-2 1,-2 2,-2 4,-2l8 -1c0,-1 0,-3 1,-4l-19 2c0,0 1,0 1,1 2,2 1,4 1,6 1,0 3,0 4,0zm-12 -6l-37 4c1,1 1,2 1,3l-1 3c2,-3 7,-6 11,-7 6,-2 13,-1 17,5l8 -1 1 -7c0,0 0,-1 0,-1zm34 -4c1,1 2,2 2,3 1,0 1,0 2,0 1,-1 3,-2 4,-3 1,0 1,-1 2,-1l-11 1zm25 -3c0,0 1,0 1,0l6 -1c2,0 3,0 5,-1l1 0 0 0 -12 1zm17 -24c-1,-1 -2,-1 -2,-2 -1,-1 -1,-2 0,-2l3 -2c1,0 1,-1 2,-1 1,-1 2,-2 3,-1l4 4c0,0 1,1 1,1 0,1 -2,3 -4,4 1,1 1,1 2,2 0,0 1,1 1,1 0,1 -6,6 -7,6 -1,0 -3,-2 -4,-2 -1,-1 -2,-2 -3,-3 0,-1 0,-1 1,-2 1,0 2,-1 2,-2l1 -1z"/>
   <path class="fil1" d="M182 30c-1,3 -1,8 -1,11l0 3c0,3 0,4 1,6 0,1 0,1 0,2 0,2 1,4 1,6 1,2 2,2 3,0 2,-4 1,-13 1,-16 0,-3 -1,-9 -2,-12 -1,-2 -2,-2 -3,0z"/>
   <path class="fil2" d="M72 43c0,-2 0,-2 -1,-3 -1,-1 -2,-1 -3,-1 -3,0 -3,0 -3,1 0,2 -1,5 -1,7l2 0c2,0 4,0 5,-1 0,-2 1,-3 1,-4zm-3 14l-5 1c-1,0 -1,0 -2,0 -1,4 -2,8 -2,11 0,2 0,2 0,3 1,1 2,3 5,2l2 -3c0,-1 2,-3 2,-3 -1,0 -2,-1 -2,-2 0,0 1,-5 2,-10zm2 -27c0,0 6,-5 6,-5 -1,-1 -3,-2 -4,-3 0,0 5,-4 5,-4l-5 -4c-1,0 -1,1 -2,1 -1,0 -1,1 -1,1l-3 2 2 2c0,0 1,1 2,1 0,0 -2,2 -3,2 -1,1 -2,2 -2,2 0,0 4,4 5,4zm19 17l-3 13c0,2 -1,4 0,6 1,2 3,4 7,3 0,0 5,-7 5,-7 -1,-1 -2,0 -2,-1l0 -1c0,0 0,0 0,0 0,-1 0,-1 0,-2 1,-2 1,-5 2,-7 2,-2 4,-5 6,-7l1 -1 1 -1c7,-5 16,-1 14,1 -2,2 -8,2 -8,-1 0,0 -3,0 -5,1 -1,1 -2,2 -3,4 0,2 1,2 2,3 3,2 11,1 15,-3 1,-1 2,-2 3,-3 2,-3 2,-8 -1,-10 -3,-2 -8,-1 -12,0 -2,0 -3,1 -5,2 -3,1 -7,5 -9,8 0,1 -1,1 -1,2 0,-2 1,-4 1,-6 1,-5 -4,-4 -7,-4 -1,3 -1,7 -2,10zm47 -9c0,3 0,6 0,9 0,1 0,2 0,3 0,2 2,9 2,9 -1,0 -4,1 -6,1 0,2 0,2 0,3 1,1 2,3 5,2l2 -3c0,-1 2,-3 2,-3 -1,0 -2,-1 -2,-2 0,-1 4,-21 4,-24 0,-2 0,-2 -1,-3 0,0 -1,-1 -2,-1l-4 0c0,0 0,0 0,1 0,2 -1,4 -1,6zm5 -7l7 -1 2 -5 -25 2 -1 5 -4 0 21 -1zm1 -13c0,0 6,-5 6,-5 -1,-1 -3,-2 -4,-3 0,0 5,-4 5,-4l-5 -4c-1,0 -1,1 -2,1 -1,0 -1,1 -1,1l-3 2 2 2c0,0 1,1 2,1 0,0 -2,2 -3,2 -1,1 -2,2 -3,2 0,0 4,4 5,4zm-18 9l-44 5 -1 5 44 -5 1 -5zm-61 12l1 -5 -51 5 -1 5 51 -5zm1 -5l-1 5 16 -2 1 -5 -16 2zm-31 19c17,-5 14,14 9,19 -3,4 -13,2 -16,1 -1,0 -1,0 -2,-1 -2,-1 -3,-2 -3,-5 1,-3 5,-4 6,-2 0,1 0,1 -1,2 1,1 3,0 4,-1 3,-1 5,-5 3,-7 -2,-2 -8,-1 -10,1 -2,2 -2,2 -2,2 0,-2 1,-3 2,-4 0,-1 -1,-3 -1,-4 0,0 0,-1 0,-1 0,0 0,0 0,0 0,-2 1,-5 1,-6 0,-1 0,-1 0,-2l-1 0c0,0 -1,0 -1,0l-5 0 -6 34c-1,6 -2,11 -3,16 3,0 5,1 8,1 0,0 0,0 0,0l2 -13c0,-2 0,-5 1,-7 1,1 1,1 2,1 2,1 5,1 8,1 9,0 16,-4 21,-11 2,-3 3,-7 3,-11 0,-3 0,-6 -2,-9 -3,-4 -8,-5 -15,-3 -3,1 -4,1 -5,2 -1,0 -2,1 -2,2 0,0 -1,1 -1,1 0,1 -1,1 -2,2 0,0 -1,1 -1,2 0,0 0,1 0,1 0,0 0,1 0,1 0,0 0,1 0,1 2,-2 5,-4 8,-5z"/>
   <path class="fil3" d="M57 53c0,2 0,4 0,6 1,0 2,0 3,0 1,0 1,0 2,0 0,0 1,0 1,0l2 0 1 0c0,0 0,0 0,0 0,0 0,0 0,0 0,0 0,0 0,0l5 -1 3 0c1,0 4,0 4,-1 0,-3 0,-3 0,-5 0,-2 0,-3 0,-5 0,0 0,0 0,0 0,0 -1,0 -1,0l-1 0c0,0 -1,0 -1,0 0,0 -1,0 -1,0l-1 0 -4 0c0,0 -1,0 -1,0l-2 0 -10 1c1,1 1,2 1,4zm24 -9c-2,4 -1,16 3,17l6 0 2 -13c0,-2 1,-4 1,-5l-9 1c-1,0 -2,0 -3,1zm19 8c-1,2 -1,5 -2,7 0,1 0,1 0,1l7 0c1,0 1,0 1,0 0,0 1,0 1,0 0,-1 -1,-7 -1,-8 0,-1 0,-1 0,-1 0,-2 0,-1 0,-2 0,0 0,0 0,-1l0 -2c-2,2 -5,5 -6,7zm2 -7c0,-1 1,-1 1,-2 1,-1 2,-2 3,-3l-2 0c0,0 -1,0 -1,0l-1 0c0,2 -1,4 -1,6 0,-1 1,-1 1,-2zm23 3c-4,3 -11,4 -15,3 -1,-1 -2,-1 -2,-3 0,-2 1,-3 3,-4 2,-2 4,-1 5,-1 0,1 1,2 1,2 2,1 5,1 6,-1 2,-3 -7,-6 -14,-1l-1 1c0,0 0,0 0,0 0,1 0,1 0,2l0 2c0,2 0,3 0,5 0,3 1,7 4,9 1,0 1,0 1,0l2 0 1 0 6 -1 1 0 10 -1c0,0 1,0 1,0 2,0 5,-1 6,-1 0,0 -2,-8 -2,-10 0,-1 0,-2 0,-3l0 -3c0,-1 0,-4 0,-6 0,-2 0,-3 0,-3 0,0 0,0 -1,0l-1 0 -4 1c0,0 0,0 -1,0l-6 1c2,1 3,3 3,5 0,1 -1,4 -2,5 -1,2 -2,2 -3,3zm21 -14c0,2 -3,14 -4,20 1,3 2,6 3,8 1,1 2,2 3,2 0,0 0,0 1,0 0,0 0,0 0,0 2,0 5,-1 8,-1 1,0 1,0 1,0 2,0 4,-1 7,-1l1 0 13 -2c0,-1 0,-2 -1,-2 0,-2 -1,-4 -1,-7 0,-3 -1,-4 -1,-7l0 -3c0,-2 0,-3 0,-4 0,-2 0,-6 1,-8 0,-2 1,-3 1,-4 0,0 0,0 0,0l-18 2c0,0 -1,0 -1,0l-8 1 0 1 -7 1c1,0 1,1 2,1 1,1 1,1 1,3zm37 -11c-2,1 -2,4 -3,5 0,2 -1,4 -1,6 0,4 0,5 0,9l0 4 0 1c0,1 0,2 0,3 1,4 3,16 8,12 2,-1 2,-4 3,-5 0,-2 1,-5 1,-7l0 -4c0,-1 0,-3 0,-4l0 -2 0 -1 0 -4c0,-1 -1,-4 -1,-6 0,-2 -1,-4 -3,-6 -1,-1 -3,-2 -4,-1zm-2 12c0,-4 2,-13 6,-9 2,2 3,7 3,10 0,2 1,8 1,10 0,4 0,12 -2,15 -1,2 -3,2 -4,1 -3,-3 -4,-17 -4,-20 0,-1 0,-2 0,-3 0,-1 0,-2 0,-2 0,-1 0,-1 0,-1z"/>
   <path class="fil4" d="M32 57c2,-1 5,-1 6,1 3,3 0,8 -3,9 -1,1 -3,2 -5,0 -1,0 -1,-1 0,-2 0,0 0,-1 0,-1 -1,0 -2,1 -2,2 0,2 0,2 2,3 0,0 1,0 1,1 3,1 9,2 11,-1 1,-2 2,-5 3,-8 1,-6 -1,-11 -8,-9 -1,0 -3,1 -3,2 0,0 -1,1 -1,1z"/>
   <path class="fil5" d="M98 91c1,0 1,0 3,0 3,0 4,0 7,0 1,0 2,0 4,0 -2,1 -5,1 -6,2l1 0c1,0 3,-1 5,-1 1,0 3,0 4,0 1,0 2,1 2,1l2 1c0,0 0,0 1,0 1,0 1,1 1,2 0,2 -1,2 -2,3 -1,1 -1,0 -6,-1 -1,0 -2,0 -3,0 -2,0 -3,0 -4,0 -1,0 -3,-1 -5,-1 -3,-1 -6,1 -6,0 0,0 0,0 0,0 0,-1 0,-2 0,-3 1,0 2,-1 3,-1zm-12 3c0,0 0,0 0,0 0,0 0,0 0,0 1,0 0,-1 0,-1 0,0 0,-1 -1,-1 0,0 -1,0 -1,0 0,0 0,0 0,0 1,0 0,0 2,-1 1,0 2,0 2,-1 0,-1 0,-1 1,-1 1,0 2,0 3,-1l0 0c0,0 0,0 1,-1 0,0 0,-1 1,-1 2,0 2,0 4,0 2,0 2,0 3,1 0,0 -2,0 -3,1 -1,0 -1,1 -2,1 -1,2 1,5 -1,6 -2,1 -4,0 -6,-1 -1,0 -1,0 -1,-1 0,0 -1,0 -1,-1zm12 -3c-1,0 -2,0 -3,1 0,-1 0,-2 1,-3 0,0 2,-1 3,-1 1,0 0,0 0,-1 0,0 1,0 1,0 2,0 2,0 4,0 1,0 5,0 5,0 0,0 0,0 0,0 -1,1 -1,2 0,3 0,0 1,0 1,1 -1,0 -2,0 -3,0 -2,0 -8,0 -10,0zm-7 -5c0,1 1,1 -2,2 -1,0 -2,0 -2,1 0,0 0,1 -1,1 -3,1 -3,1 -3,1 -1,0 -1,0 -1,0 -2,0 -4,0 -6,-1l-1 -1c0,0 -2,-1 -3,-1 2,0 4,-1 5,-1 2,0 1,0 3,0 1,0 2,0 3,0 0,0 0,0 0,0l0 0c-2,1 0,1 0,2 -1,0 -1,0 -1,0 3,0 0,-1 1,-2 0,0 1,0 1,0 0,0 0,0 1,0 0,0 0,0 0,0 1,0 2,0 3,0 1,0 2,0 2,0 0,0 0,0 0,0 0,0 0,0 0,0zm0 0l0 0c0,0 1,0 1,0l-1 0 0 -1zm-50 -1c1,0 3,1 2,1 -2,0 -2,-1 -2,-1zm114 5l0 0c0,0 0,0 0,0 -1,1 -1,1 -3,1 -1,0 -4,0 -5,0l1 0 -1 1c-2,1 -3,1 -5,1 -3,1 -2,0 -3,0 -1,0 -3,-1 -3,-1 -2,-1 1,-2 1,-2 1,-1 -1,-2 -2,-3 0,-1 0,-1 0,-2 0,-1 -1,-1 -1,-1 1,-1 3,-1 4,0 2,0 6,2 8,2 1,0 4,0 6,0 2,0 3,0 5,0 2,0 3,0 5,0 4,0 5,2 10,2 1,0 1,0 2,0 1,1 3,1 2,2 0,0 -1,1 -1,1 -1,1 -1,2 -4,3 -1,0 -6,1 -7,1 -1,0 -1,0 -2,-1 -1,-1 -3,-1 -5,-1 -1,0 -5,0 -5,-1 0,0 0,-1 0,-1 1,0 2,-1 3,-1 1,0 1,0 2,0 -1,0 -2,0 -3,0 -1,0 -2,0 -2,1 0,0 0,0 0,0zm34 -12l1 1c0,0 1,0 1,0 0,0 1,0 1,1 0,0 0,0 0,0 2,2 2,1 3,2 -1,0 -4,1 -5,1 0,0 0,0 -1,0 -2,-1 -1,-1 -4,-1 -2,0 -4,0 -3,-1 0,-1 -1,-1 1,-2 1,0 1,0 2,-1 1,0 1,0 2,0zm-97 4c0,0 0,0 -1,0 -1,0 -3,1 -4,1 -1,1 -1,3 -2,3 -1,1 -3,0 -6,1 -2,0 -2,0 -4,0 0,0 -1,0 -1,0 0,-1 0,-1 -1,-1l-1 -1c2,0 4,0 5,-1 1,0 3,-1 4,-1 -1,0 -2,1 -4,1 -2,0 -3,1 -5,1 -2,0 -2,0 -3,-1 -1,-1 -1,-1 -2,-2 -1,-1 1,-4 2,-5 0,0 0,0 1,0 0,0 4,-2 4,-2l1 -1 0 0c0,0 0,0 0,0 1,0 1,0 2,1 1,0 3,2 4,2 1,1 2,2 1,3 -1,0 -1,0 -1,1 0,0 0,0 0,0 -1,0 0,0 -1,0 -2,-1 -2,-1 -3,-1 1,1 0,1 2,1 2,0 3,2 3,3l0 0c0,-1 -1,-1 0,-2 1,-1 2,-1 1,-2 4,-1 7,1 11,2 0,1 0,1 1,1 0,0 0,0 0,1 0,0 0,0 0,1 -1,1 -4,0 -4,1zm61 -3c0,-1 -4,-1 -5,-1 4,0 6,0 9,0 1,0 2,0 3,0 2,0 4,0 6,-1 2,0 4,0 4,-1 -1,0 -1,1 -3,1 -1,0 -3,0 -4,0 0,0 1,0 2,0 2,0 4,-1 6,-1 0,0 0,1 -1,1l-2 1c-3,1 -1,1 -2,2 -1,2 4,3 -4,4 -3,0 -3,0 -5,0 -5,0 -10,1 -15,0 -1,0 0,0 -1,0 0,0 -1,0 -1,0 1,0 2,0 3,0 1,0 1,0 2,0 0,0 0,-2 0,-2 -1,2 2,2 -2,2 -1,0 -3,0 -4,0 -1,0 -1,0 -1,-1 0,0 -1,0 -1,-1 -1,0 -2,-3 -1,-3 1,-1 6,0 9,0 5,0 2,0 7,0 1,0 1,0 2,0 0,0 0,0 0,0l0 0zm-45 1c0,0 0,0 1,0 0,0 0,0 1,0l3 -3c2,0 3,1 3,2 0,1 0,1 0,1 0,1 1,3 -1,4 -2,1 -1,1 -2,2 -3,1 -2,1 -7,1 -2,0 -4,0 -6,0 -1,0 -1,0 -1,0 -1,-1 -3,0 -6,0 -2,0 -3,-1 -6,0 1,-2 0,-3 5,-4 1,0 1,0 1,0 0,0 0,0 0,0 1,0 3,0 4,-1 1,0 1,0 2,0 1,0 1,0 2,1 1,0 1,0 2,0 0,0 -3,-1 -3,-1l0 0c0,0 0,0 0,0 1,0 5,0 5,1 0,0 0,1 0,1 0,0 0,1 -1,1 0,0 0,1 0,1 0,0 0,0 0,1 0,1 0,1 0,1 0,-1 0,-2 1,-3 0,0 1,-1 1,-1 0,-1 0,0 1,-1 -1,0 -1,0 -4,0 -2,0 -2,0 -4,0 0,-1 -3,-1 0,-3 2,-1 0,-1 1,-1 1,-1 1,-1 1,-2 1,-1 1,-1 3,0 1,0 2,1 3,1l7 1 -4 3c0,0 0,0 -1,0zm22 -2c-1,-1 -4,-1 -5,-1 -1,0 -1,-1 -1,-1 0,-1 0,-1 0,-2l1 -1c1,0 3,-1 4,-1 0,1 -1,1 1,1 0,0 1,0 1,0 1,0 2,0 2,0 0,0 0,0 1,0 0,0 0,0 1,0 0,0 0,1 0,1 1,1 0,1 0,2 0,1 0,2 0,3 -1,-1 -1,-1 -3,-2 -1,0 -1,0 -1,0zm-5 0c0,0 0,0 0,0 0,0 0,0 0,-1l0 0c0,0 0,0 0,0l1 0c1,0 1,0 2,0 1,0 2,1 2,1 0,0 1,1 2,1 1,0 1,1 1,1 1,2 2,2 1,3 -1,0 -2,0 -2,0 -1,0 -1,0 -2,0 -5,1 -5,0 -9,1 -2,0 -2,0 -3,1l-1 0c1,0 3,0 4,0l2 0c1,0 2,0 3,0 1,0 2,0 3,0 3,0 4,-1 5,0 2,1 -2,1 0,4 0,1 1,1 0,1 -3,2 -3,1 -10,2 -1,0 -2,0 -3,1 -1,0 -1,1 -2,1 -1,0 -1,0 -1,-1l-2 -1c-1,0 -2,-1 -2,-1 0,0 0,0 1,0 -1,0 -5,0 -6,0 0,-2 -2,-1 0,-4 2,0 2,-1 4,-1 1,0 0,0 0,0l1 0c0,0 1,0 1,0 1,0 1,0 2,0 0,0 0,0 -1,0l-3 0c0,-3 4,-1 3,-6 0,-1 0,-1 1,-2 2,-2 -1,-3 4,-3 2,0 2,1 2,1 0,1 1,1 1,2zm-102 1c1,-1 2,-2 4,-3 2,-1 1,0 3,-1l2 -1c0,0 0,0 -1,0 0,0 -1,1 -1,1 0,0 1,-1 2,-1l0 0c1,-1 4,0 4,-3 4,0 4,0 9,0 5,0 5,1 9,0 0,1 0,2 0,3 0,1 -2,1 -3,2 -1,0 -4,0 -6,0 -2,0 -4,1 -5,1 -1,0 -2,0 -2,1 0,0 -1,0 -1,0 0,0 0,0 -1,0 -1,1 -3,0 -5,0 -1,0 -4,1 -5,1 -1,0 -2,1 -4,1zm151 4c1,0 2,0 3,0 1,0 2,0 3,0 0,0 0,0 0,0 0,0 0,0 -1,0 2,0 0,-1 3,-1 3,-1 3,0 5,0 2,0 2,0 4,1 1,0 1,0 1,1 -1,1 -2,2 -2,3 0,0 0,0 0,0 0,0 0,0 0,0l0 0c-1,0 -5,-1 -7,0 -1,0 -1,0 -1,0l0 0c1,0 2,0 3,0 3,0 6,1 8,1 1,0 1,0 2,1 2,1 3,3 1,4 1,0 0,0 1,0 0,1 0,1 0,2 0,0 0,0 0,0 0,0 0,0 0,0 0,1 1,2 -4,1 -2,0 -3,0 -5,0 -2,0 -3,0 -4,0 -1,0 -3,0 -4,-1 0,0 1,0 2,0 1,0 2,0 3,0 -2,0 -3,0 -5,0 -2,0 -2,0 -5,0 -2,0 -3,0 -5,0 -1,0 -4,0 -3,-1 1,0 2,0 3,0 1,0 5,-1 6,-1 0,0 0,-1 2,-1 0,0 0,0 -1,0 0,0 0,-1 1,-1 0,0 2,-1 1,-1 0,-1 -2,-1 -2,-1 1,0 2,0 3,0 0,0 0,0 0,0l0 0c-2,0 -2,0 -4,0 -3,0 -3,0 -7,-1 -1,0 -3,-1 -4,-1 1,0 4,0 5,-1 1,-1 1,-1 0,-1 0,-1 -1,-2 0,-3 0,0 2,-1 3,-1 0,0 0,0 0,0 2,-1 1,-1 1,-2 -1,0 0,0 -1,0 0,0 0,-1 0,-1 0,0 0,-1 -1,-1 0,1 1,1 1,2 -1,0 -2,0 -3,0 -1,0 -2,0 -3,1 -2,0 -5,1 -7,1 0,0 1,-1 1,-1 0,0 0,0 0,0l0 0c0,0 0,0 0,0 0,0 0,0 0,0 0,0 0,0 -1,0 0,0 0,0 0,0 0,0 0,0 0,0 0,0 0,0 0,0 0,0 0,0 0,0 0,0 0,0 0,0 -1,0 -2,0 -3,0 -1,0 -2,0 -3,0 4,0 4,0 6,0 0,0 -2,0 -2,0 -3,0 -15,1 -18,0 0,-2 -1,-2 3,-2 3,0 2,0 4,-1l1 0c0,0 0,0 0,0l-1 0c0,0 0,-2 1,-2 0,0 0,0 0,-1 1,-2 3,-2 6,-3 1,0 0,0 1,0l0 0c0,0 0,0 1,0l1 0c1,0 1,0 1,0 0,0 1,0 1,0 1,0 2,0 2,0 2,1 1,1 4,2 2,1 1,2 4,2 1,0 2,0 3,0 0,1 -2,1 -3,2l-3 1c0,0 0,0 -1,0 0,0 0,0 -1,0 0,0 -1,0 -1,1l-1 0c0,0 0,0 0,0 3,-1 2,-1 4,-2 1,0 4,-1 5,-1 2,-1 1,0 3,-2 0,0 1,0 1,-1 1,-1 1,-2 3,-2 0,0 4,1 5,1 0,0 2,1 3,1 1,0 5,-1 4,2 0,1 -1,2 0,4 0,0 1,1 1,1 -1,0 -4,1 -6,2 0,0 0,0 0,0 0,0 -1,-1 -1,-1 -1,0 -1,0 -2,0 0,0 0,-1 -1,-1 0,0 0,1 1,1 0,0 1,0 2,1 1,0 2,1 1,2 -1,0 -2,1 -4,1l-4 1c0,0 0,0 0,0zm-84 -12c-1,0 -1,0 -1,-1 0,0 1,1 1,1zm27 6c-1,0 -2,0 -3,-1 -1,0 -3,0 -4,0 -1,0 -4,-1 -5,-1l-1 0c0,0 0,0 0,0 0,0 -2,0 -2,0 0,0 1,-1 1,-1 1,0 1,0 2,-1 1,-1 2,-1 2,-2 3,-3 5,-2 8,-2 3,0 5,0 6,0 1,0 0,0 1,0 1,0 3,0 4,0 1,0 4,0 5,1 1,0 1,0 2,1 2,2 1,1 -2,2 -1,0 0,0 -1,1 -1,0 -3,1 -4,1 -1,1 -1,1 -2,1 0,0 -1,0 -2,0 -1,0 -2,0 -3,0 -1,0 -1,2 -2,3zm-41 -4c-1,0 -1,1 -2,1 0,0 0,0 0,0l-3 1c-1,0 0,0 -1,1 0,0 0,0 0,0 0,0 0,0 0,0l0 0c0,0 0,0 0,-1 0,1 0,1 -1,2 -1,1 -1,1 -2,1 -1,0 -4,0 -5,0 -3,0 -3,-1 -4,-2 -2,-1 -3,0 -4,-2 -1,-1 -1,-1 0,-2 1,0 3,0 4,0 0,0 0,0 0,0 -1,0 -3,0 -4,0 1,-1 2,-2 1,-4 0,-1 -1,-1 0,-1 1,0 3,-1 5,-1 1,0 2,0 2,0 0,0 1,0 1,0l2 1c0,0 0,0 0,0 1,0 10,0 12,0 1,0 3,-1 4,-2l0 0c0,-1 1,-1 1,-2 1,0 1,0 2,1 1,0 2,0 2,1 0,0 0,1 1,1 0,0 0,0 0,1 0,0 0,0 0,1 1,0 1,0 2,1 2,2 0,1 4,2 4,1 5,0 5,1 0,1 0,1 -1,2 -1,1 0,1 -2,2l-1 0c0,0 0,0 0,0l0 0c-1,-1 -7,-2 -8,-2 1,0 1,0 2,-1 1,0 1,-1 1,-1 -3,1 -2,2 -4,2 -1,0 -2,0 -2,0l-2 -1c0,0 -1,0 -1,-1 0,-1 -1,-1 -2,-2 0,0 0,0 -1,0 0,0 -1,0 -1,0 -1,0 0,0 -1,0 0,0 0,-1 1,-1l0 -1c0,-1 0,0 0,0 0,0 0,1 -1,2 0,1 -1,1 -1,1zm-48 2c-1,0 -2,-1 -1,-2 1,-1 1,-1 2,-2 1,-1 1,-1 2,-2 2,0 3,0 5,0 0,1 0,1 -1,2 0,1 -1,1 -3,1 -1,0 -1,0 -2,1 -1,1 -1,1 -2,1zm125 -7c0,0 0,0 0,0 0,0 0,0 0,0zm-107 -4c0,-1 0,-1 2,-1 1,0 2,0 3,0 1,0 1,0 2,1 1,0 3,1 4,2 0,0 1,1 1,1 -1,1 0,1 -3,2 -3,1 -2,1 -6,0 -4,0 -3,0 -5,-1 -1,-1 -2,-2 -1,-2 1,-1 3,-1 4,-1zm37 2c0,0 0,0 1,0 2,-1 1,0 2,-1 0,0 0,0 0,0 0,0 0,0 0,0 0,0 -1,2 -2,1zm35 1c2,-1 -1,-3 8,-5 3,-1 5,1 8,1 0,0 -1,1 -1,1l-2 1c0,0 0,0 0,0 0,0 0,0 0,0 -1,0 -2,1 -2,1 1,0 0,0 1,0 1,-1 2,-1 2,-1 0,0 1,0 1,0 1,0 2,1 3,1 1,0 4,0 5,0 1,0 3,1 3,1 0,0 0,1 -1,1 -1,0 0,1 -1,1 0,1 -3,0 -5,0 0,0 0,0 1,0 2,0 3,0 5,0 0,0 0,-1 1,-1 1,0 1,0 1,-1 0,0 1,0 1,0l1 1c1,0 0,0 1,0 0,0 0,0 0,0 -2,1 -3,3 -4,4 0,0 -1,1 -1,1 -2,1 -1,1 -4,1 -1,0 -2,0 -2,0 0,-1 0,-1 -1,-2 0,0 0,0 0,0l-1 0c-1,0 -1,0 -2,0 -2,0 -2,0 -2,-1 0,0 0,0 0,0 2,-1 4,-1 3,-2 -1,-1 0,-1 -2,-2 -1,0 -1,0 -1,0 -2,0 -3,0 -3,-1 -1,1 0,0 -5,0 -1,0 -4,0 -5,0zm19 -6c1,0 1,0 2,0 8,0 5,-2 10,-3 1,0 1,0 2,0 4,1 2,1 2,2 0,0 1,0 1,1 1,0 1,1 2,1 -1,0 -2,1 -2,1 0,0 0,0 0,0l1 0c3,-1 1,0 5,0 1,0 2,0 4,0 3,0 4,0 7,0l2 1c0,0 0,0 0,0 2,1 1,0 2,1 0,0 0,0 1,1 1,1 0,2 -1,3 -2,1 -2,3 -4,3 -2,0 -3,0 -4,-1 -1,0 -2,-1 -2,-2l0 0c-1,-1 -2,0 -4,-1 -1,0 -1,-1 -3,-1 -1,0 -1,0 -1,0l0 0c0,0 -1,0 -1,0 -1,0 -1,0 -1,0l-1 0c0,0 0,0 0,0 -1,-1 0,-1 0,-3 0,-1 0,-1 1,-1 0,0 -1,1 -1,1 0,0 -1,2 -1,2 0,1 2,1 -1,2 -6,2 -4,0 -7,-1l-2 -1c0,0 0,0 0,0 -1,0 -1,0 -1,-1 -1,0 -2,0 -3,0 -4,0 -3,1 -5,0 -1,0 0,0 -2,-1 1,-1 3,-2 4,-3 0,0 1,-1 1,-1zm-19 -2c1,0 1,0 2,-1 1,0 1,1 2,1 0,0 0,0 0,0 1,1 0,1 1,2l-1 0c-1,0 -2,1 -3,2 -1,1 -1,1 -1,2 0,0 -1,1 -1,1l-5 0c-3,0 -1,0 -2,0 0,0 0,0 1,0l1 0c-1,0 -1,0 -1,0 -2,1 -1,0 -3,1l-4 0c0,0 0,0 0,0l-1 0c-1,0 -1,-1 -1,-1 0,0 0,0 -1,-1 -1,-1 -1,0 0,-1 0,0 1,-1 1,-1 0,0 -1,0 -1,0 0,0 0,0 1,-1 0,0 -1,0 -1,0 0,0 0,1 -1,1 -2,1 0,0 -2,1 0,0 0,0 -1,0 0,0 0,0 0,0 0,0 2,0 2,1 1,1 1,1 4,2 1,0 2,0 3,0 0,0 0,0 0,0 -1,1 -2,2 -4,2 0,0 0,0 -1,0 -1,1 -5,1 -7,1 -3,0 -4,-2 -5,-2l-1 -1c0,0 0,0 0,0l-1 -2c1,0 2,0 4,0 1,0 2,0 3,0 1,0 1,0 1,0 -3,0 -6,-2 -8,0 -1,0 0,0 -2,0 -1,0 -1,0 -2,0 2,-2 2,-2 5,-4 2,-1 5,-3 9,-2 1,0 1,0 1,0 1,1 2,0 2,1l1 0c0,1 0,2 -1,3l0 0c0,0 0,0 0,0 1,-1 0,-2 1,-3 3,-1 7,0 9,-1 3,-1 3,-2 6,-2zm-97 4l0 0c0,0 0,0 0,0 0,0 0,0 0,-1 0,0 0,-1 0,-1 0,-1 -2,0 -1,-2 1,0 1,0 2,0l2 0 4 2c1,1 3,1 4,2 0,0 0,0 0,0 2,0 2,0 4,0 1,0 3,0 4,0 3,0 5,-1 8,0 -1,1 -2,1 -4,2 -1,0 -2,1 -5,1 -2,0 -2,0 -4,0 -1,0 -1,-1 -2,-1 0,0 1,1 1,1 1,0 1,0 2,0 1,0 0,0 1,0 1,0 3,0 4,0 1,1 1,2 3,3 -1,0 -4,1 -5,1 -2,0 -1,0 -3,0 -1,0 -2,0 -3,0 -5,0 -5,1 -6,3 0,0 0,-1 -1,-1 -2,-1 -3,-2 -3,-3 1,0 1,0 2,0 1,0 1,0 2,0 0,0 0,0 -1,0 -2,0 -2,1 -5,0l0 0c-1,0 -1,0 -2,0 0,0 0,0 0,0 0,0 0,0 0,0 0,0 0,0 0,0l0 0c-1,0 -1,0 -1,-1 0,0 -1,0 -1,-1 0,-1 2,-1 2,-2zm99 -5c1,-1 1,-3 1,-4 1,0 3,0 4,0 3,0 2,1 3,1 1,0 5,0 7,1 2,1 2,2 2,3 0,0 -1,2 -1,2 -1,1 -2,1 -2,1 -1,0 -2,0 -3,0 -8,-2 -9,1 -9,-1 0,0 -1,-2 -3,-2zm-44 5c-1,1 -2,1 -1,1 0,0 2,1 2,1 2,0 5,0 7,1 0,0 -1,0 -1,1 -1,1 -1,1 -2,1 -2,1 -2,1 -9,1 -4,0 -5,0 -7,-1 -2,-1 -4,-1 -6,-1 -1,0 0,-2 1,-2 1,-1 2,-1 3,-2 1,0 2,-2 2,-2 0,-1 0,-1 1,-2 1,0 1,-1 2,-1 2,-1 6,-1 6,-1 0,0 0,0 0,0l0 0c0,0 0,0 0,0l0 0c1,0 11,-1 11,-1 2,0 2,1 4,1 1,0 2,0 3,1 0,0 0,0 1,0 1,1 1,1 -1,2 -1,0 -4,2 -5,2 -1,0 -1,1 -1,1 0,0 0,0 -1,1 0,0 0,0 -1,0 -1,0 -1,1 -1,1 -1,0 -2,0 -3,0 -3,0 -2,0 -5,-1l-1 -1c0,0 1,-1 1,-1zm105 -4c-2,0 -2,0 -4,-1 0,0 0,0 0,0 0,0 0,0 0,0 -1,-1 0,-1 0,-1 1,0 1,-2 1,-2 2,0 2,0 3,1 2,1 3,0 5,1 1,0 1,1 2,1l-7 4c0,0 0,0 -1,0 -1,0 -3,2 -4,2 -1,0 -4,-2 -9,-1 -1,0 -1,0 -2,0 -3,0 -5,0 -7,-1l-1 -1c0,0 -1,0 -1,-1 -1,-2 4,-1 5,-2 1,-1 -1,-1 -1,-2 2,0 1,-1 2,-1 0,-1 1,-1 3,-1 1,0 2,0 3,0 1,0 2,0 3,1l1 1c-2,1 0,1 -1,2 0,1 -2,1 -2,2 0,0 1,-1 2,-1 1,-1 0,-1 0,-2 0,0 3,0 5,-1 1,0 1,0 1,0 0,1 0,1 -1,1 0,0 0,2 5,2zm-155 0c3,-1 1,-2 3,-3 1,-1 4,-2 7,-1 0,0 0,0 1,0 0,0 1,0 1,0 1,0 1,0 1,1 -1,0 -2,0 -3,0 -2,0 -2,0 -2,1 0,0 0,0 1,0 0,0 1,0 1,0 2,0 2,0 3,0 1,0 2,0 2,1 1,0 2,0 3,0 1,0 1,1 0,1 0,0 0,0 -1,1 -2,2 1,2 1,3 -1,0 -5,0 -6,1 -1,0 -2,0 -3,0 -4,0 -6,-2 -10,-4l1 0zm19 0c-1,-1 0,-1 -1,-2 0,0 0,0 -1,0 0,0 1,0 1,-1 0,-1 1,-1 2,-1 1,0 1,0 1,0 1,0 1,1 3,0 2,0 2,0 3,0 0,1 -1,1 -1,1 -1,0 -1,1 -1,2 -1,3 0,2 1,3 -3,1 -4,0 -8,0l0 -1c-1,-1 0,0 -1,-1 -1,-1 0,-1 1,-2 0,0 0,0 1,0zm57 -3c1,-1 1,-2 3,-3l4 -3c1,0 2,0 3,1 2,0 1,0 1,0 2,1 4,0 6,0 2,0 2,1 2,1 0,1 0,1 -1,2 -1,1 0,4 -2,4 -1,0 -3,0 -4,1l0 -1c-1,-1 -2,0 -1,-2l0 0c0,0 0,0 0,0 0,1 4,1 1,2 -3,1 -7,1 -11,1 -1,0 -1,0 -2,0 -1,0 -1,0 -2,-1 0,0 0,0 0,0l1 -1c2,-2 1,-2 2,-3 2,-1 6,1 9,0l0 0c0,0 0,0 0,0 -1,0 -1,1 -4,0 -2,0 -2,0 -4,0l0 0zm-18 -4c0,0 1,0 1,1 0,0 0,1 -1,1l0 -2zm23 -2c0,1 -2,2 -2,2 0,0 0,0 0,0 0,0 -1,1 -2,2 -1,1 -1,1 -1,2 0,1 -1,1 -1,1 0,1 0,1 -1,2 0,0 0,0 0,0l-1 0c0,0 -1,0 -1,1 -1,0 -2,0 -3,0 0,-1 -2,-3 -1,-4 1,0 2,0 3,-1 2,-2 2,-1 3,-2l2 -1c0,0 0,0 1,-1l2 -1c1,0 2,-1 3,-1zm-55 13c0,-1 -2,-1 -1,-2 0,-1 1,-2 1,-3 0,-1 1,-1 2,-2 0,-1 0,-2 1,-3 1,-1 1,-1 3,-2 4,-1 2,0 5,-1 4,0 2,-1 4,-1 2,0 4,0 6,0 -1,1 -1,1 -2,2 -1,1 -1,1 -2,2 -2,1 -1,1 -2,2 -1,0 -2,1 -3,1 0,0 0,-1 1,-1 -1,0 0,0 -1,0 -1,0 -1,0 -1,1 0,1 1,1 1,2 -1,0 -1,0 -2,0 -2,0 -2,1 -6,-1 0,0 0,0 -1,0 0,1 2,1 2,1 0,0 1,0 1,0 2,1 3,0 5,0 0,1 2,1 1,2 0,0 -1,2 -1,2 0,1 0,1 -2,2 -3,1 -1,2 -4,1l-3 -1c-1,0 -1,0 -2,-1zm109 -12c-1,-1 0,-2 1,-2 1,-1 3,-1 5,-1 2,0 2,0 3,1 2,1 6,1 8,1 0,1 -1,1 -1,2 0,1 0,1 0,2 0,0 0,-1 0,-1 0,0 0,-1 0,-1 0,-1 0,-1 1,-2 2,1 3,0 6,0 2,0 4,0 6,0 0,1 1,2 1,2 0,0 0,1 0,1 0,1 -1,1 -1,2 -1,1 -3,2 -3,2l0 0c0,0 0,0 0,0 0,0 0,0 0,0 -1,0 0,0 -2,-1 -2,-1 -4,-1 -5,-1 -1,-1 -1,0 -1,0 -1,0 1,0 -1,0 0,0 0,0 1,0 0,0 0,0 0,0 0,0 0,0 0,0l0 0c0,0 0,0 -1,1 -1,1 -1,1 -2,2 0,0 0,1 0,1l-4 1 -2 -1c0,0 -4,-1 -5,-1 -1,0 -2,0 -3,0 0,-1 0,-4 0,-4l1 0zm-96 5c0,0 0,0 0,0 0,0 0,0 0,0 0,0 0,0 0,0 0,0 0,0 1,0 2,-1 1,-1 3,-2 1,0 2,0 3,0 1,0 2,1 3,1 0,0 0,0 0,0 -2,-1 -2,-1 -5,-1 0,0 1,-1 1,-2 1,-1 2,-1 2,-2 1,0 8,0 12,0 -1,1 -1,2 -1,4 1,4 1,2 2,3 -1,0 -4,0 -6,1 -2,0 -7,0 -9,1 -2,0 -3,1 -4,1 0,0 0,0 0,0 0,0 0,0 0,0 0,0 0,0 -1,0 -3,-2 0,-1 -1,-3 0,0 -1,-1 -1,-1 0,0 1,-1 2,-1l0 0zm20 -6c1,0 2,0 3,0 6,-1 7,-4 14,-2 2,0 4,1 6,1 0,0 0,1 0,1 0,0 0,0 -1,1l-2 1c-2,1 -2,1 -4,2 0,0 0,0 -1,1 -1,1 -1,1 -2,1 0,0 0,0 0,0 -2,1 -2,2 -3,2 -1,0 -1,0 -3,0 0,0 0,-1 0,-1 0,0 2,-1 2,-2 0,1 -1,1 -1,1 -1,1 -1,1 -1,2 0,0 0,0 0,1 0,0 1,1 0,2 -2,0 -4,-1 -4,-1 0,0 -1,0 -1,0 -6,-2 -1,-3 -2,-4 0,0 -1,0 -1,-1 0,0 0,0 0,-1 0,0 0,0 0,-1 0,0 0,0 0,-1zm-33 5c-1,0 0,0 -1,0 -1,0 -1,0 -1,0 -1,0 -2,0 -3,0 -2,0 -2,0 -3,1 0,0 0,0 -1,0 -1,1 -2,1 -3,0 -1,0 -1,0 -1,-1 0,-1 -3,-1 -3,-1 1,0 3,-1 4,-2 0,0 0,0 -1,0 0,0 0,0 0,0l-8 2c0,0 0,0 0,0 0,0 0,0 0,0 0,0 0,0 -1,0 -3,2 -2,3 -8,3 -2,0 -4,0 -5,-1 -2,-1 0,-4 -4,-4 1,-1 0,-1 1,-1 0,0 1,0 2,0 0,0 1,0 1,-1 0,-1 2,-1 3,-1 3,0 2,-1 3,-1 1,-1 2,-1 3,-1 0,1 0,1 -1,2 2,-1 1,-3 2,-4 2,0 5,0 7,0 1,0 2,0 3,0 1,0 2,0 2,1 -5,1 -6,0 -7,1 2,0 1,0 3,0 3,0 3,-1 5,-1 1,0 1,0 1,0 1,0 1,0 1,0 1,1 1,2 1,2 0,1 -1,1 -2,2l0 0c0,0 1,0 1,0 1,0 3,0 4,0 0,0 1,0 1,-1 -3,1 -2,1 -5,1 0,0 1,-1 1,-1 0,0 0,-1 0,-1 0,-1 0,-1 -1,-2 2,0 7,0 9,0 1,0 1,0 2,1 1,0 1,1 2,1 1,1 2,1 2,2l-1 3c-3,-1 -3,0 -6,-1 2,0 4,0 4,-1zm58 -8c0,-1 1,-2 2,-2 1,-1 3,-1 4,-1 4,0 4,2 5,3 2,1 3,1 3,2 2,1 1,1 -1,2l-1 0c-1,1 -2,1 -4,1 -2,-1 -4,1 -6,0 -1,-1 -3,-1 -5,-1 0,0 1,-2 1,-2 1,-1 2,-1 1,-2zm42 -2c-1,0 -1,0 -1,0l1 0zm-14 0c2,0 3,-1 6,1 1,0 3,1 4,0 1,0 1,0 2,0 2,0 5,0 7,0 6,1 5,3 4,5 -1,2 1,2 0,5 -1,0 -2,1 -2,1 0,0 1,1 1,1l0 1c-2,0 -3,0 -5,1 -1,0 -2,-1 -3,-1 -4,1 -3,0 -6,2l-1 1c-1,0 -4,1 -5,0 0,0 -1,-1 -1,-1 0,0 0,-1 0,-1 1,-1 1,-1 0,-2 -1,-1 -1,-1 -1,-1 0,0 0,0 0,0 1,-1 1,-1 2,-2l1 -1c0,0 1,0 1,-1 1,0 1,-1 1,-1l3 -1c0,0 1,0 1,0 0,0 0,0 1,0l0 1c1,0 1,0 1,-1 0,0 0,-1 0,-1 0,0 -1,-1 0,-1l0 0c-1,0 0,0 -1,0l-1 -3c-1,1 2,3 1,4 0,0 -1,0 -1,1l-2 1c0,0 0,0 -1,0 0,0 0,0 -1,0l-1 1c0,0 -1,0 -1,1 -2,1 -3,1 -4,2 -1,1 -1,1 -3,1 -4,0 -9,-1 -13,-1 0,-1 1,-1 1,-2 0,-1 0,-1 1,-2 1,0 2,-1 2,-1 1,0 1,-1 2,-1 1,0 1,0 2,0 3,1 4,0 6,0 1,0 2,2 3,3 0,0 -2,-2 -2,-3 -1,-1 -3,-1 -6,-1 -2,0 -2,0 -3,-1 -1,0 0,0 -1,-1l-1 -1c-1,-1 -5,-3 -3,-3 1,0 4,-1 6,-1 1,0 2,0 3,0 1,0 2,0 4,0 3,0 3,0 4,1 0,0 1,0 1,0 -1,0 -1,0 -1,0 0,0 0,0 0,0zm-6 -2c3,0 6,0 8,1l1 1c-1,0 -3,-1 -4,-1 -2,0 -3,0 -5,0zm-83 3l-1 1c-12,1 -8,-1 -17,-1 -1,0 -2,0 -3,0 -1,0 -2,0 -3,0 0,-1 0,-1 1,-2l2 -1c0,0 1,0 1,0l1 -1c1,0 2,0 3,-1 0,1 0,1 1,1 1,0 1,0 2,1l-1 -1c-2,-1 -1,-1 1,-2 3,-1 3,-1 8,0l3 1c3,1 1,0 3,1 4,1 6,0 9,0 0,0 0,0 0,0 0,0 0,0 0,0 0,0 0,0 0,0 1,0 2,0 3,0 1,0 2,0 3,1 0,1 0,1 0,2 0,1 0,2 0,3 1,2 -1,1 -3,1 -1,0 -2,0 -3,0 -4,0 -4,-1 -5,-2 -1,-1 -3,-1 -5,-1 0,0 0,0 0,-1 0,0 0,0 0,0 0,0 0,0 0,0zm138 -5c0,0 0,0 0,0 0,0 0,0 0,0l0 0zm-30 -2c0,0 0,0 0,0 0,0 0,0 0,0zm-142 8c-1,0 -1,0 -2,0 -1,0 -1,0 -2,0 -1,0 -2,0 -4,0 -1,0 -1,0 -2,0 -1,0 -4,-1 -4,-1 0,-1 2,-2 3,-2 1,-1 -1,-2 3,-2 1,0 1,0 2,0 4,-1 4,0 7,-2 0,0 0,0 1,0 0,0 1,0 1,-1 0,0 0,0 1,-1 1,-1 1,-1 2,-1 2,1 -1,1 0,3 0,1 2,1 2,3 0,0 0,0 0,0 0,0 0,0 0,0 0,0 0,0 0,0 2,0 5,0 7,0 0,0 -3,1 -3,2l-3 2c-3,0 -3,0 -6,0l-4 1zm46 -5c0,0 1,0 1,1 0,0 -1,0 -1,1 -4,-1 -7,1 -13,0 -1,0 -3,-1 -3,-1 1,0 1,0 2,-1 0,-1 0,0 0,-1l0 0c0,0 0,0 0,0 0,0 0,0 -1,1 -1,0 -1,0 -3,0 -1,0 -4,-1 -4,-2 1,0 1,0 2,-1 2,-2 -2,-3 3,-4 1,0 6,0 7,0 0,0 0,0 1,0 1,0 2,0 3,0 1,0 3,0 3,0l-2 0c0,0 1,0 1,0 1,0 1,0 2,0 1,0 2,0 3,0 3,0 9,0 11,1 0,0 0,0 1,0 2,1 2,1 4,1 0,1 0,1 0,1 0,0 1,0 1,-1 1,0 1,0 2,1 0,0 1,0 2,1 1,0 2,0 3,0 1,0 2,0 3,0 1,0 0,0 2,1 1,0 2,0 2,0 -1,0 -1,0 -2,0 -1,0 -1,0 -2,-1l1 0c0,-1 0,0 1,-1 1,0 1,1 2,1 2,0 3,0 4,0 1,0 1,0 3,1 1,0 2,0 2,1 0,1 -2,2 -3,3 -1,1 -2,1 -4,2 -2,0 -5,0 -8,0 -3,0 -5,1 -7,0 -1,-1 -4,-2 -6,-2 -1,0 -2,0 -3,0 0,-2 1,-1 3,-2 2,0 2,-1 4,-1 -1,0 -1,0 -2,1 -2,1 -5,1 -5,2 -1,1 0,1 -1,2 0,0 0,0 0,0 -1,1 -2,1 -2,2 -1,0 -1,0 -2,0 -1,0 -1,0 -2,0 0,0 2,-1 1,-1 0,0 -1,0 -1,0zm96 2c0,-1 0,0 0,-2 0,0 1,-1 0,-2 0,0 0,0 0,-1 0,0 0,0 0,-1 0,0 0,0 0,0 0,0 0,0 0,0 -1,0 0,0 0,0 0,-1 0,-1 0,-2 0,0 0,0 -1,1 -1,1 -2,0 -4,0 -3,0 -3,-1 -5,-1 -3,-1 -3,-1 -5,0 -2,0 -4,0 -6,0 0,0 0,0 0,0 0,0 2,-1 3,-1 1,0 1,0 2,-1 2,-1 2,-2 5,-2 3,-1 4,-1 8,-1 3,0 5,-1 7,-1 1,0 2,1 2,1 0,0 0,1 0,1 0,1 -2,2 -3,2 -1,0 -2,1 -3,1 1,0 1,0 1,0 1,0 2,-1 3,-1 1,0 2,-1 3,-2 2,0 2,1 5,1 0,2 -1,1 0,3 0,0 0,1 1,1 1,1 1,1 0,2 -2,1 -2,1 -4,2 0,0 1,0 0,-1 0,0 0,1 -1,1 -1,1 -3,1 -4,2 0,0 -2,1 -2,2 -1,0 -3,0 -4,0l-3 0c-1,0 0,0 -1,0 -1,0 -2,-1 -1,-2 0,-1 0,-2 -1,-2 -1,0 -2,-1 -4,-1 1,0 2,0 3,1 4,2 0,3 2,4l1 0c0,0 0,0 0,0 -1,0 -2,0 -3,0 -1,0 -1,0 -2,0 -2,0 -3,0 -4,-1 -1,0 -1,-1 -1,-1 -1,0 -1,0 -1,-1l-1 -1c-1,0 -1,0 -2,0 -3,-1 -6,0 -9,0 -2,0 -3,0 -5,0 -2,0 -3,1 -4,1 0,0 0,0 -1,0 0,0 -1,0 -1,0 0,-1 1,-1 1,-2 0,-1 0,-1 1,-2l0 0c0,0 0,0 0,0 0,0 0,0 -1,-1 0,0 -1,0 -1,0 0,0 1,1 2,1 0,0 -1,1 -2,2 -3,2 -9,3 -9,2 0,0 0,0 0,-1 0,0 0,0 0,1 1,0 1,0 2,0 0,0 0,0 -1,0 -1,1 -1,3 -1,4 -2,-1 -5,-1 -8,-2 -2,0 -5,0 -6,1 0,0 0,0 -1,0 -1,0 -2,1 -4,1 -4,1 -10,1 -15,0l1 0c-2,0 -3,0 -5,0 -3,0 -3,0 -5,0 -1,-1 -1,-3 -1,-4 0,-1 0,-2 1,-3 1,0 1,-1 2,-1 2,-1 3,0 5,0 4,1 3,2 8,2 3,0 2,-1 7,0 8,0 3,2 7,3 1,0 2,0 3,0 0,0 0,0 -1,0 -1,0 -3,0 -3,-1 0,0 -1,-2 0,-2l1 0c0,0 1,0 1,0 1,0 2,-1 2,-2 1,-1 2,-1 2,-2 1,-1 -2,-2 3,-2 2,0 3,0 5,-1 1,0 1,0 2,-1l2 0c0,0 0,0 0,0 -2,0 -3,0 -3,1 -2,1 -1,0 -3,1 -1,0 -2,0 -3,0 -2,0 -1,1 -2,1 -1,0 -2,0 -3,0 -1,0 -1,-1 -2,-1 -3,0 -2,0 -5,-1 0,0 2,-1 2,-2 1,-1 1,-2 3,-2 2,0 4,0 6,0 2,0 3,-1 5,0 0,0 2,0 2,1 2,1 4,1 5,2 0,0 0,0 0,0 1,1 2,1 3,1 3,0 3,1 4,1 2,0 3,-1 5,-1 0,1 1,1 0,2 -1,1 -1,1 -2,1l4 -1c0,0 0,0 0,0 1,0 3,0 4,0 1,0 1,0 2,0 0,0 1,0 1,0 0,0 1,0 1,0 1,0 3,0 4,1 0,-1 -2,-1 -3,-1 -1,0 -2,-1 -3,-1 1,0 3,-1 4,-1 2,-1 2,-1 4,0 2,0 3,1 5,0 2,-1 2,-1 4,0 0,0 0,0 1,0l2 1c1,1 4,1 5,1 2,1 0,4 1,5zm43 -12c-1,0 -5,-1 -6,-1 2,0 3,0 5,1 1,0 1,0 1,0zm-70 -1c0,0 1,1 1,2l-2 1c-1,0 -4,1 -5,1l0 0c0,0 0,0 0,0 0,0 0,0 0,0 0,0 -1,-3 -2,-3 0,0 0,0 0,0 0,0 1,1 1,2 0,1 0,1 0,2 -1,0 -2,0 -2,0 -1,0 -1,1 -2,0 0,0 -1,-1 -2,-1 -3,0 -2,0 -4,-1l-2 -1c0,0 0,0 -1,0 -2,-1 -1,0 -2,-1 0,0 1,0 1,-1l3 -1c0,0 1,0 1,-1 1,0 0,0 1,-1 2,-1 2,-2 3,-2 1,0 1,0 2,0 1,0 2,-1 3,0 0,0 0,1 1,1 1,0 2,0 3,1 2,0 1,0 2,1 0,0 0,0 0,0l0 0c0,0 1,1 2,1 1,0 2,0 3,0 0,0 -1,1 -2,2 -1,-1 -1,0 -1,-1 0,0 0,0 0,0 0,0 0,0 0,0zm-103 0c1,0 1,-1 3,-1 1,0 1,0 2,0 4,-1 1,-1 4,-1 4,0 2,1 6,1 2,0 2,0 2,1 1,1 2,2 3,3 -2,0 -5,0 -6,1 -3,1 -1,3 -3,4l-2 1c-1,0 -2,0 -2,1 -2,0 -1,2 -4,2 -1,0 -2,0 -3,0 -4,0 -4,0 -5,-1 -3,-3 -2,-3 -1,-4 1,-1 -2,-1 1,-2 0,0 0,0 1,0 1,0 1,0 1,0 1,0 1,0 1,0 -2,0 -4,0 -5,1 -1,0 -1,0 -1,0 -1,0 -2,1 -3,1 0,0 0,0 0,0l-1 0c-1,-1 -1,-1 -2,-2 0,0 0,-1 0,-2 0,-1 0,-1 -1,-1 2,-1 5,0 8,0 2,0 2,0 4,0 1,0 2,0 3,0 0,0 -1,0 -1,1zm113 -4c0,-1 0,-1 0,-1 0,-1 0,-1 0,-1 1,0 2,-1 3,-1 1,-1 3,-1 4,0 3,1 1,1 3,2 1,1 3,0 4,1 2,1 2,1 4,2 0,0 0,0 1,0 1,0 1,1 1,1 0,0 0,0 1,0l2 1c-3,0 -4,1 -7,1 -5,0 -5,0 -8,1 1,0 2,-1 1,-2 0,0 -1,-1 0,-1 0,0 1,0 1,-1 0,0 -1,1 -1,1 0,0 0,1 0,1 0,1 0,1 -1,1 -1,1 -1,1 -1,1 -2,0 -4,1 -5,2 -1,1 -2,0 -3,0 0,0 -2,0 -2,0l-4 1c2,0 3,0 4,0 1,0 1,0 2,0l2 0c-3,1 -3,1 -7,2 -1,0 -2,0 -3,0 -1,0 -5,0 -6,0 -1,0 -1,0 -1,-1 0,0 0,-1 0,-1 1,0 2,0 3,-1 1,0 2,0 3,-1l2 -1c0,0 0,0 1,0 1,0 2,-1 3,-1 2,-2 2,-2 4,-4 0,0 0,0 0,0 0,0 0,0 0,0 0,0 0,0 0,0 0,0 0,0 0,0zm-27 3c-1,0 0,0 -1,0 0,0 -1,0 -1,0l-2 1c-2,1 -3,0 -6,0 -2,0 -5,0 -7,0 -2,0 -4,-1 -4,-2 0,-1 3,-1 5,-2l3 -1c0,0 0,0 0,0 1,0 1,-1 2,-1 3,-2 0,-2 6,-4 1,0 1,1 2,1l3 1c0,0 0,0 1,1 1,0 2,0 4,0 0,1 1,1 1,2 -1,0 -1,0 -2,1 -1,0 -1,0 -1,1 0,1 0,1 -1,1 -1,1 -1,1 -1,1zm-88 -5c1,0 0,0 1,0 0,0 0,0 1,0 0,0 1,0 1,0 1,0 1,-1 1,-1 1,-1 2,-1 4,-1 1,0 1,-1 3,0 2,1 2,4 -2,5 -3,1 -6,1 -10,2 0,0 0,0 0,0 -1,-1 -2,-1 -2,-2 -1,-1 -1,-2 0,-3 1,-1 1,-1 3,-1 1,0 1,0 2,1zm45 5c0,0 0,-1 -1,-1 0,0 -1,-1 -1,-1 0,0 -1,-1 -1,-1 0,0 -1,0 -1,-1 -1,-1 -1,-1 0,-2l2 -2c1,0 1,1 1,1 1,1 0,0 0,1 0,0 2,0 3,1 1,0 1,0 2,1 1,0 0,0 0,0 0,0 3,1 3,1 4,1 3,1 7,1 2,0 4,1 4,1 1,2 0,2 0,3 0,1 0,1 -1,1l-3 2c-1,0 -1,1 -1,1 -1,0 -5,1 -6,0 -1,0 -1,-1 -2,-1 -1,-1 -3,0 -5,-1 -2,0 -2,-1 -4,-1 -4,-1 -1,-2 1,-3 0,0 1,0 1,0 1,0 0,0 1,0 1,0 1,0 2,0 0,0 0,0 0,0 0,0 0,0 0,0 0,0 0,0 0,0 -1,-1 -2,0 -3,0zm102 -3c3,-1 1,-1 4,-2 1,-1 3,0 3,0 0,0 1,0 1,0 1,0 1,0 1,0 1,0 1,0 2,-1 1,0 5,0 6,0 0,0 -1,1 -1,1 0,1 -1,2 -1,2 0,0 -1,1 -1,1 0,0 0,0 -2,-1 -1,0 -1,0 -1,-1 0,0 -1,-1 -1,-1 -1,0 -1,0 -2,0 0,0 1,0 2,1 1,0 1,0 1,1 4,1 3,1 1,2l-1 0c-1,0 -2,1 -3,2 -1,0 -1,0 -2,1 -3,1 -2,1 -4,1 -1,0 -2,0 -3,0 -1,0 -1,0 -2,0 -1,0 -1,0 -2,0 -3,-1 -2,-1 -2,-2 0,0 -2,-1 -2,-2 -1,-1 -2,-1 -2,-2 4,-1 5,0 11,0l0 0zm-169 -3c2,0 3,0 4,0 1,0 4,0 4,0 3,-1 5,-1 6,-1 1,0 1,0 2,0 1,0 0,1 0,1l-1 1c0,0 0,0 -1,0 -1,0 -1,0 -1,1 1,0 0,0 2,-1 0,0 -1,1 -1,1 0,0 2,2 2,3 1,1 1,1 2,1 0,0 0,0 0,0l0 0c-2,0 -3,0 -5,0 -3,0 -3,0 -4,1 -1,0 -2,-1 -3,-1 -1,0 -1,0 -2,0 -3,-1 -3,-4 -4,-5zm45 9c-1,-1 -2,-2 -3,-3l-1 -1c0,0 -2,0 -3,-1 0,0 0,0 -1,0l-2 -1c-1,0 -2,-1 -2,-1 0,-2 5,-1 9,-2 2,-1 3,-1 5,-1 1,0 2,0 3,-1 1,0 3,0 3,0 1,0 2,0 3,0 2,0 5,0 7,1 -4,4 -1,4 1,6l1 1c0,0 1,1 1,1 0,0 -1,1 -2,1 -1,0 0,0 -1,1l-1 1c-1,0 -2,1 -4,0 -6,0 -5,1 -10,1 0,0 -1,0 -2,0 -1,0 -2,0 -2,0zm-18 -11c1,0 1,0 3,0 -1,0 -1,0 -3,0zm13 -3c1,0 3,0 4,0 3,0 2,0 3,-1 0,0 2,-1 3,-1 0,2 3,3 4,4 -1,1 -5,1 -7,1 -4,1 -12,3 -13,1 0,-1 -2,-1 0,-2 0,0 0,0 1,0 1,0 1,-1 1,-2l4 0zm-18 5c-1,0 -1,0 -2,0l0 0c-1,0 -1,0 -1,0 0,-1 0,-1 -1,-1 -1,0 0,-1 0,-2 -1,0 -1,0 -1,0 0,0 0,0 0,0 0,-1 0,-1 -1,-2 -1,-1 -1,-1 0,-2 1,0 2,0 3,-1 2,-1 2,-1 5,-2 1,0 2,-1 2,-1 1,0 1,0 2,0 2,0 2,1 3,1l3 1c1,1 1,0 1,1 1,1 2,2 1,3 -1,0 -1,0 -1,1 -1,0 -1,0 -2,1 -1,0 0,0 -1,-1l1 -1c-1,1 -1,1 -1,1 0,0 -3,0 -5,1 -1,0 -1,0 -1,0 0,0 0,0 1,0 0,0 -2,3 -4,2l1 0zm32 -3c0,-1 -2,-2 -2,-2 -1,0 0,0 -1,-1 0,0 -1,-1 0,-2 0,0 3,-1 3,-1 2,0 4,-1 6,-1 3,0 5,0 6,1 0,0 1,0 1,1 1,0 0,0 1,0 1,0 1,0 2,0 1,0 1,0 2,0 1,0 5,4 5,4 0,1 0,2 -4,2 -1,0 -2,0 -3,1 -1,0 -2,0 -2,-1 0,0 -1,-1 -2,-1 -1,-1 -2,-1 -2,-2 0,1 0,1 0,1 -1,0 -3,-1 -4,-1 -1,0 -2,0 -2,0 -1,0 -2,0 -3,0zm37 -5c0,0 0,0 0,0 0,0 0,0 0,0l0 0zm-12 4l-2 0c-1,0 -1,0 -2,0 0,0 -1,-1 -1,-1 -1,-1 -2,-2 -2,-3 0,-1 1,-1 2,-1 2,0 1,-2 3,-2 1,-1 3,-1 5,-1 2,1 3,1 6,1 3,1 1,2 2,3 0,0 0,0 0,0l-1 0c0,0 0,0 0,0l1 0c0,0 0,0 1,0 0,1 0,1 -1,2 1,0 0,-1 1,-2 0,0 0,0 1,0 3,1 3,1 5,1 0,0 1,1 1,1 0,0 0,0 0,0 2,1 0,1 0,2 1,1 1,2 1,3 0,0 -1,1 -1,1 0,0 -3,1 -4,1l-1 0c0,0 0,0 -1,0 0,0 -1,-1 -2,-1 0,0 1,-1 1,-1 0,0 -1,1 -1,1 1,0 1,0 2,1l1 0c1,0 0,0 1,0l-1 0c-5,1 -5,1 -8,0 -2,-1 -4,0 -5,-1 -1,0 -1,0 -2,0 -1,0 -3,0 -3,0 -1,0 -4,-1 -5,-1 0,0 0,0 0,0 1,-1 4,-1 5,-1 2,-1 1,-2 2,-2 1,0 2,0 3,0zm75 -1c1,0 3,-1 4,-1 1,0 2,-1 2,-1 1,0 2,0 3,0 2,1 4,1 5,2l1 0c0,0 0,0 0,0 0,0 0,0 -1,-1l1 0c-2,0 -2,0 -4,-1 -2,-1 -3,-1 -5,0 1,-1 1,-2 3,-3 2,-1 6,0 6,-1 0,0 0,0 -1,0 -1,0 -3,0 -5,0 0,0 0,0 0,0 0,0 0,0 0,0 0,0 0,0 1,-1 1,0 1,-1 2,-1l2 -3c1,0 5,0 6,0 0,0 1,2 2,2 0,0 0,0 1,1l1 2c0,0 -1,2 -1,3 -1,0 -1,-1 -2,-1 0,0 0,0 0,0 1,0 2,0 1,1 0,0 0,0 0,0 0,0 0,0 -1,0 0,0 0,0 0,0l-1 0 1 0c0,-1 0,-1 1,-1 1,-1 5,0 7,0l0 0c-1,0 -1,0 -2,0 -1,0 -1,0 -1,0 -1,0 -2,0 -4,0 0,0 0,-1 1,-1l1 -3c1,0 3,0 4,0 2,0 4,1 6,1 0,0 0,0 1,0l1 1c0,0 1,0 1,1 0,0 -1,0 -1,0l2 0c2,1 1,2 1,2 0,1 0,0 -1,1 -1,1 -2,2 -3,2 -1,0 -1,0 -1,1 0,0 -1,0 -1,0 0,0 0,0 -1,0 -2,0 -6,0 -7,0 -1,0 -1,1 -2,1 -1,0 -2,0 -3,0 0,-1 -3,-2 -3,-2 0,0 0,0 0,0 0,0 0,0 -1,0 0,1 2,1 3,2 0,0 1,0 1,1 -2,0 -2,1 -3,2 -2,3 -8,0 -13,1 -1,0 0,0 -2,-1 -2,-1 -2,0 -3,-1 -1,-1 -1,-1 -2,-1 -1,0 -2,0 -3,-1 1,0 1,0 3,-1 2,0 3,-1 6,-1 2,0 1,0 3,1 0,0 0,0 0,0l-1 -1c-2,0 -4,0 -6,0 0,0 0,0 1,0 0,0 1,0 1,0zm-145 -6l-2 -1c0,0 2,1 2,1zm91 8c-1,0 -1,0 -1,-1 0,0 -1,-1 -1,-1 0,-1 1,-2 1,-2 0,0 -1,-1 -1,-1 0,0 0,0 -1,0 0,0 0,0 0,0 0,0 1,0 1,-1 1,0 1,0 1,-1 2,-2 2,-1 8,-1l5 -1c1,0 1,0 1,0 0,1 1,1 0,2 0,0 0,0 -1,1 0,1 1,1 0,2 0,0 0,0 -1,1 0,0 0,1 1,1 -2,0 -3,0 -5,0 0,0 0,0 -1,0l-1 0c-1,0 -1,0 -2,1 0,0 0,0 0,0l0 0c-2,0 -4,1 -5,1 0,0 -1,0 -1,0zm-96 -11c1,0 0,1 1,1l-1 -1zm33 -1c0,0 0,0 -1,1l1 -1zm62 0c-1,-1 1,-3 3,-4 3,-1 3,-1 6,0 2,1 3,0 4,1 1,1 1,3 1,4 0,1 0,1 -2,1 -1,0 -2,0 -3,1 -2,0 -6,0 -7,1 -2,0 -1,1 -2,1 -1,0 -3,2 -6,1 -2,0 0,0 -2,-1 0,-1 0,-1 0,-2 0,-2 -6,-1 -8,-3 2,0 3,0 4,0 3,0 2,1 4,0 1,0 1,0 2,-1 1,-1 4,-1 5,-1 0,0 0,0 0,0 0,0 0,0 1,0zm-64 8c0,0 0,-1 -1,-1 0,0 0,0 0,0 -1,-1 1,-1 2,-2 1,-1 0,-2 0,-2 0,0 0,0 0,-1 0,0 0,0 0,-1 0,-1 2,-1 3,-1l0 0c2,-1 1,0 3,-2l2 -1c1,-1 3,0 4,-1 1,0 2,0 2,0 0,0 1,0 1,0 0,0 0,0 1,0 1,1 2,0 3,2 0,1 1,1 1,1 0,2 0,2 2,4 -1,0 -2,0 -4,1l-6 2c0,0 0,0 -1,0 0,0 0,0 -1,0 -1,1 -1,0 -2,1 -1,0 -1,1 -3,1 -3,0 -4,0 -7,0zm84 -7c0,0 -1,0 -1,0 -1,0 1,1 -4,1 0,-1 0,-1 0,-2 0,-1 -1,-1 -1,-1 0,0 1,-1 2,-1 1,0 2,0 3,0 0,0 1,0 1,1 1,1 0,0 2,1 2,1 5,2 7,3 4,3 1,3 1,3 -1,1 -1,1 -1,2 -2,2 -4,0 -6,2l1 0c0,0 0,0 0,1 0,0 0,0 0,0 0,0 0,0 0,-1 1,-1 4,-1 5,-1 1,0 1,0 2,-1 0,0 1,0 1,0 0,0 0,0 1,0 1,0 2,1 3,0 0,0 0,0 0,0l0 0 -2 0 0 0c-1,0 -1,0 -2,0 0,0 0,0 -1,0 0,0 0,0 -1,0 0,0 1,-1 1,-2 0,0 1,-1 1,-2 1,0 1,0 2,1 1,0 1,0 1,0 2,1 5,1 6,2 -3,1 -2,0 -5,0 1,0 2,0 3,0 3,0 2,0 3,1 2,1 0,2 0,2 -1,1 -2,1 -3,2 0,0 -1,0 -1,0 -1,0 -1,1 -2,1 0,0 0,0 0,0 1,0 1,0 2,-1 0,2 -4,4 -4,5 -2,0 -1,1 -2,0 -2,0 -3,-1 -5,-1l-1 0c-1,0 -2,0 -2,-1 -1,0 -2,-1 -1,-2 0,0 0,0 1,0 1,0 1,0 1,-1 -1,0 -1,0 -2,1l-1 1c-1,0 -2,0 -3,0 -1,0 0,-1 -1,-1 -1,0 -3,0 -4,0 -1,-1 -1,-1 -2,-1 -1,0 -1,-1 -2,-1 0,0 0,0 0,0 4,-1 3,-1 5,-2 2,0 3,0 4,0 2,0 2,0 4,0 -3,0 -6,0 -5,-2 0,0 0,0 0,-1 0,0 0,0 0,0 0,0 0,0 0,0 1,0 0,-1 0,-1 0,0 1,-1 1,-1 0,-1 0,-2 -1,-2 1,0 2,0 3,0 0,0 1,0 1,0 0,0 1,0 1,0zm12 -3c1,2 1,1 3,3 0,0 0,0 0,1 0,1 0,2 -1,3 -1,0 -2,-1 -2,-1 -1,-1 -2,-2 -3,-2 0,0 -1,0 -1,-1 0,0 -1,0 -1,-1l-1 -1c0,0 -1,0 -1,0 -1,0 -2,0 -3,-1 0,0 -1,-1 -2,-1 0,0 0,0 -1,0 0,0 -1,-1 -1,-1 1,0 1,0 1,-1 1,-1 1,-1 5,0l6 2c0,0 1,0 1,1zm29 -1c1,0 2,-1 2,-1 0,0 2,-1 2,-1 0,0 0,0 0,0 4,-2 5,0 7,-1 1,0 1,1 2,1 1,0 2,0 3,0 1,0 3,0 5,0 1,0 0,0 1,0l-1 0c0,0 1,1 1,1 0,1 -1,0 -2,0 0,0 1,0 2,0 0,0 0,0 0,0 0,-1 -1,-1 0,-2 1,0 1,1 2,1 2,2 5,1 7,1 2,1 3,2 1,3 -1,1 -1,3 -3,3 -1,0 -2,0 -3,-1 -5,-2 -4,-1 -8,-1 -2,0 -3,-1 -3,-1 -1,-1 -2,-2 -3,-3 2,0 7,0 7,-1 -1,0 -4,0 -5,0 -2,0 -3,0 -6,0 -2,0 -4,0 -6,0 -2,0 -3,0 -5,-1 0,-1 0,0 0,0zm-81 2l-1 0c-1,0 -1,1 0,1 0,0 1,1 2,1 -1,1 -2,0 -5,2 -2,1 1,1 -3,2 -1,0 -2,0 -2,0 -2,-1 -2,0 -5,-1 0,0 0,-1 0,-1 0,0 1,-1 1,-1 3,-2 0,-3 -1,-6 1,-1 3,-1 5,-1 1,0 1,0 1,0 2,0 3,0 5,1 1,0 1,0 2,0l0 1c-1,0 -1,0 -3,0 -1,0 -2,0 -4,0 0,0 1,0 2,0 3,1 2,0 3,0 1,0 1,0 2,0 0,1 0,0 -1,1l0 0c0,0 0,0 0,0 1,0 1,0 2,-1 0,0 1,2 1,2l0 1zm-53 2c0,0 0,0 0,0l-1 0c0,0 -1,0 -1,0 -1,0 -2,0 -2,0 -2,0 -2,-2 -4,-3 -2,-1 -4,-1 -2,-2 1,-1 0,-2 1,-3 1,0 4,-1 5,-1 3,0 3,1 5,2 1,0 0,0 1,0 0,0 0,0 1,1 0,0 1,0 1,1 1,1 0,1 0,2 -1,0 -1,0 -2,0 2,0 5,0 7,1 1,1 4,1 2,2 -1,1 -1,1 -1,1 0,0 0,1 0,1 0,1 0,1 0,2 0,1 -1,1 -2,2l-1 1c-1,0 -1,0 -3,-1 -1,-1 0,-1 -3,-2 -1,0 -3,-1 -4,-1 -1,0 0,-1 0,-1 0,0 -1,-1 -1,-1 1,0 2,0 3,0 1,0 2,0 2,0zm24 -5c0,0 0,0 0,0 1,-1 1,-1 2,-2 0,0 0,0 1,-1 0,0 2,-1 3,-2 1,-1 2,-2 4,-1 1,0 0,0 2,1 1,1 2,2 2,3 -1,1 0,2 0,3l1 2c0,0 0,0 0,1 0,1 -1,1 -1,1 -1,0 -1,0 -1,1 0,1 -1,0 -2,1 -1,0 -2,0 -3,0 0,-1 -1,-1 -1,-2 -1,-1 0,-1 0,-2 0,0 -1,-1 -1,-1 -1,-1 -1,-1 -3,-1l-1 -1c1,0 4,0 6,0 0,0 0,0 -1,0 -1,0 -3,0 -3,0 -1,0 -2,0 -3,0zm-5 -1c0,0 0,0 1,0 0,0 1,0 1,0 -2,1 -3,0 -5,1 -1,1 -1,1 -2,1 0,0 0,0 0,0 -1,1 -1,1 -2,1l-1 0c0,-1 -5,-2 -6,-3 -3,0 -1,-1 -1,-2 0,-1 -2,-1 -2,-2 2,0 5,-1 6,-1 2,0 5,-1 7,-1 0,1 1,1 2,2 1,0 2,1 3,1zm108 14c0,0 1,0 0,1 0,0 -1,0 -1,0 -2,0 -5,1 -6,1 -2,0 -3,-1 -5,-1 -2,0 -1,-1 -2,-1 0,0 0,0 -1,-1 -2,-2 -5,-2 -6,-2 -1,0 0,0 -1,-1 0,-1 1,-2 1,-3 0,-1 -1,-2 -2,-3 0,0 -1,-1 0,-1 0,-1 0,-2 1,-2l0 0c0,0 0,0 0,0 0,0 0,0 0,0 0,-1 0,-2 0,-3 0,-1 1,-1 3,-2 1,0 4,0 5,0 1,0 2,1 3,1 -2,1 1,3 -2,3 0,0 -1,0 -1,0 -1,0 -1,0 -1,0 2,0 4,0 4,-1 0,0 0,-1 0,-1 0,-2 1,-1 3,-1 1,0 3,-2 4,-2 2,0 1,2 1,3 0,0 1,0 1,1 0,0 0,0 0,0l0 0c1,0 3,2 4,2 2,1 2,1 3,1 2,0 2,1 3,1 0,0 0,0 0,0l-1 0c2,0 3,0 5,0 0,0 0,0 0,1 -1,1 -1,3 -3,4 -2,1 -1,0 -2,1 0,1 -1,1 -1,1 0,0 -1,1 -1,2 0,0 -1,1 -2,1 -2,1 -3,0 -3,0zm-75 -10l0 -1c0,-1 -1,-1 0,-1 -1,-1 -1,-2 -1,-3 0,-1 1,-2 1,-3 1,0 2,0 3,0 1,0 1,0 2,0 1,0 4,0 6,0 0,1 1,2 -1,3l0 0c0,1 0,1 1,1 0,0 1,0 1,1 -1,-1 -2,-1 -1,-2 1,-1 1,-2 0,-3 2,0 3,0 4,0 3,-1 3,0 5,0l1 0c0,0 1,0 1,0 1,0 2,0 2,1 0,1 0,2 0,2 -1,1 -1,1 -2,1 -1,0 -3,0 -4,0 -2,0 -1,0 -4,-1 0,0 0,0 1,0 2,0 2,0 2,0 1,0 3,0 4,0 0,0 0,0 -1,0 -1,1 -1,2 -4,2 -3,1 -4,1 -6,2 -1,0 -1,0 -3,0 -2,0 -2,0 -2,-1l0 0c-2,0 -3,0 -4,1 0,0 -1,0 -1,0 0,-1 -1,-1 -1,-1 -1,-1 0,-1 0,-1zm-82 -9l0 0c7,0 3,1 3,3 0,1 -1,1 -1,2 0,1 -1,1 -2,2l0 0c2,0 2,-2 3,-3 1,-1 2,-2 2,-3 4,0 9,0 11,1 2,1 3,0 3,2 0,1 0,1 -1,1l0 0c0,0 0,0 0,1 -1,0 -1,0 -2,1 1,0 1,0 3,0 0,1 3,1 4,2 1,0 3,2 4,3 0,0 0,1 0,1 0,0 1,0 2,1 -1,1 -2,1 -3,1 -2,1 -2,1 -2,1 -1,0 -2,1 -3,1 -1,0 -3,0 -5,0 -1,-1 -1,-1 -1,-1 -1,-1 0,-1 -2,-2l-1 -1c-2,-1 -1,-1 1,-2 1,1 1,0 3,1 1,0 1,1 2,1 1,0 2,0 3,0 0,0 2,-1 2,-1 -1,0 -1,1 -2,1 -1,0 -2,0 -3,0 0,0 0,0 -1,-1 -1,0 -2,0 -3,0 0,0 -1,0 -1,0 0,0 0,0 0,-1 0,-1 -1,-1 0,-1 0,0 0,0 1,0 -1,0 -1,0 -2,0 0,0 0,0 0,0l0 1c0,0 0,1 0,1 0,0 -3,1 -3,1 -1,0 0,0 -1,0 -1,0 -1,0 -1,0l0 0c-1,0 -2,0 -2,0 -1,0 -2,0 -2,0 1,0 3,0 4,0l3 2c2,1 5,2 5,4 -2,0 -4,1 -7,1 -5,0 -3,-1 -7,-1l0 1c4,0 2,0 4,0 1,0 4,0 5,0l4 -1c2,0 3,0 4,0 0,1 0,1 0,1 0,0 1,1 1,1 -2,1 2,2 -2,3 -1,0 -3,0 -3,0 -2,0 -2,0 -3,0 1,0 2,0 3,0l0 0c-3,1 -4,1 -5,0 -1,0 -3,0 -4,0 -2,0 -2,0 -3,0l0 0c1,0 3,0 3,1 0,1 0,0 1,1 0,0 0,1 1,1 0,1 1,1 1,2 1,1 2,1 3,1 -1,0 -1,0 -1,1 1,0 1,-1 3,-1 1,0 4,2 3,3 -1,2 4,3 2,4 -1,1 -2,2 -5,2 -2,0 -3,0 -6,1 -1,0 -1,0 -2,0 -1,0 -1,-1 -2,-1l-2 -1 0 2c1,1 2,1 2,2 0,1 0,1 0,1 -1,0 -1,1 -2,1l0 2c1,0 2,0 4,1 2,0 5,1 7,1 1,0 2,0 3,-1 3,0 3,0 4,-1 2,0 3,0 5,0 0,0 0,0 0,1 0,0 0,0 0,1 0,1 0,1 0,1 0,0 -1,1 -2,1l-2 1c-1,1 -3,1 -4,1 -1,0 -1,1 -2,1l-1 0c0,0 0,0 0,0 0,0 0,0 0,0 -1,0 -1,1 -1,1 -1,0 -1,0 -1,0l-1 -1c-1,0 -1,-1 -2,-1 -2,0 -4,-1 -5,-1 0,0 0,0 0,0 -1,0 -1,0 -1,0l-1 0 0 0c1,0 1,0 2,0 1,0 1,0 2,0 1,0 1,0 2,0 2,0 1,0 2,1 0,0 1,0 1,0 1,1 0,0 2,1 1,0 2,1 3,1 0,1 0,2 0,3 0,0 -1,1 -1,1 0,0 -1,0 -2,1 -3,0 -3,0 -5,0 -1,0 -2,0 -2,0 -1,0 -2,0 -3,0l0 0c1,0 2,0 3,0 1,0 1,0 2,0 0,0 4,0 5,1 -2,1 -1,3 -1,4 0,1 -1,3 -2,3 -1,0 -2,0 -3,-1 -2,0 -2,0 -4,0l0 0c2,0 5,0 6,1 1,0 1,1 1,1 0,0 0,0 0,0 0,0 0,0 2,-2 1,-1 1,-2 1,-3 0,-1 0,-2 1,-3 0,0 1,-1 2,-1 1,0 1,0 1,-1 2,0 5,0 7,0 0,1 0,1 0,1 0,0 0,0 0,0 1,1 1,2 1,3l0 0c0,0 0,0 0,0 -1,1 -2,1 -2,1 0,0 0,0 -1,0 0,1 1,0 0,2 0,1 0,1 1,1 0,0 -2,1 -3,1 0,0 0,0 -1,0 0,0 0,0 -1,0 -2,1 -2,1 -5,2 -2,0 -4,0 -5,0 0,0 -1,-1 -1,-1 0,1 0,1 1,1 -1,1 -1,0 -1,1 1,0 1,-1 2,-1 1,0 5,0 7,-1 0,0 1,0 1,0 0,1 0,2 1,2 0,0 0,0 -1,0 0,0 0,0 0,-1 -1,-1 1,-3 2,-3 0,0 1,0 2,0 2,-1 3,-1 5,-1 1,0 1,1 2,2 1,1 2,1 2,1 2,2 -2,1 0,3 0,0 1,0 1,1 -2,0 -2,1 -3,1l-1 1c0,0 -1,0 -1,1l-3 2c-1,1 -4,0 -5,0 -1,0 -2,1 -4,0 -1,-1 -2,-1 -3,-2 0,0 0,0 0,0l-4 -2c0,0 -1,0 -2,-1l0 0c1,0 1,0 2,1l2 1c0,0 0,0 1,0 0,0 -1,0 -1,0 3,0 3,1 4,1l2 1c0,0 0,0 0,0 0,0 0,0 1,0 2,1 5,0 6,1 0,0 0,0 0,0 0,1 -3,2 -3,3l3 -1c0,1 2,2 2,2 0,-1 0,-1 -1,-2 -1,-1 -1,-1 0,-2 1,-1 1,-1 3,-2 1,0 1,0 1,0 1,0 1,0 1,1 1,1 2,0 4,1 0,0 1,0 1,0 -1,1 -2,2 -1,3 0,0 -1,0 -1,1l-3 1 -8 1c-1,0 -2,0 -3,0 1,0 2,0 3,0l0 0c0,0 0,0 2,0 1,0 4,-1 6,-1 0,1 2,2 2,2l2 1c0,1 -1,2 -2,3 -1,1 -1,1 -2,2 -1,1 -3,1 -5,2l0 0c-1,1 -1,1 -2,2l-2 2 1 0c0,0 1,-1 1,-1 0,0 1,-1 1,-1 1,-1 1,-1 4,-2 0,1 1,1 2,1l2 1c1,0 1,0 1,1 1,-1 -1,-2 -2,-2 -2,-1 -1,-1 -3,-1 0,0 0,0 1,0 0,0 0,0 0,0 0,0 1,0 1,0 2,0 2,0 3,0 0,0 0,0 0,0 0,0 0,0 0,0 0,0 0,0 0,0 -1,-1 -3,0 -4,0 0,0 1,-1 1,-1l2 -2c0,0 1,-1 1,-1l7 1c1,0 1,0 2,1 3,2 3,1 4,1 1,0 2,1 2,2 -2,0 -6,-1 -8,0l0 0c0,0 0,0 1,0 3,0 4,1 6,1 0,1 1,2 0,2 -1,1 -2,1 -3,1l1 0c2,0 2,-1 3,-1l1 1 1 0 0 -1 2 0c0,0 0,0 0,0 -1,0 -2,0 -3,0 -1,-1 -1,-2 -1,-3 0,0 0,-1 0,-1 0,-1 -4,-2 0,-3 2,-1 1,-1 2,-1 1,0 2,0 2,0 2,0 0,1 2,1 1,0 1,0 2,0 1,0 2,1 4,0 0,0 0,0 -2,0 -1,0 -2,0 -2,-1 -2,-1 1,-1 -4,-2 0,0 1,0 1,0 1,0 2,-1 2,-2 1,-1 0,-3 0,-4 1,0 0,0 1,1 1,1 1,1 2,1 3,1 1,1 2,3 0,1 1,2 2,2 0,0 1,1 2,1 0,0 1,1 1,1l0 0c0,0 0,1 0,1 0,1 1,1 -2,2 0,0 0,0 0,0 0,0 -1,0 -1,0l-1 0c1,0 2,-1 3,-1 0,0 1,-1 2,-1 0,0 1,1 2,1 0,0 0,0 -1,0 0,0 0,0 -1,0 -2,-1 1,-3 -4,-4 0,0 0,0 -1,0 0,0 -1,0 -1,-1 2,0 1,-1 5,0 1,0 1,0 1,0 0,0 0,0 0,0l-2 0c-1,0 -2,0 -4,0 0,0 0,-1 0,-2 1,0 2,0 2,0 0,0 0,0 0,0 0,0 1,0 2,-1 0,0 0,0 0,0l0 0c0,0 0,0 0,-1 0,0 0,0 0,0l0 0c0,1 1,1 1,1 -1,0 -3,1 -4,1 0,-2 -4,-2 -4,-3 0,0 0,-1 0,-1l0 0c0,0 1,0 1,0 0,0 -1,0 -2,0 0,0 0,0 1,0 -2,1 2,4 -3,5 0,0 -1,1 -2,0 -1,0 -2,0 -2,-1 0,-1 1,0 0,-2 0,0 0,0 0,0 0,0 -2,0 -3,-1 0,0 -1,0 -1,0 0,0 -1,0 -1,0 -3,-1 -1,-1 -1,-2 0,-1 1,-2 3,-2 1,0 6,0 7,0 0,0 -1,1 1,1l0 0c0,0 0,-1 0,-1l0 0c-1,0 -2,0 -4,0 -1,0 -2,0 -3,0 0,0 0,0 0,0l1 0c-2,0 -5,1 -6,2 -1,0 -3,0 -4,0 -1,0 -1,0 -2,1l1 0c0,0 0,1 -1,1 -2,0 -2,0 -2,1 0,0 -1,0 -1,1 1,0 1,-1 2,-1 0,-1 2,0 3,-1 0,0 0,-1 1,-1 1,0 3,0 4,0 0,1 0,1 -1,2 -2,1 3,2 4,2 0,0 1,0 1,1 1,0 1,0 1,1 1,0 2,1 2,1 0,0 -1,0 0,1 0,1 2,1 -2,2 -1,0 -2,1 -2,1 -1,0 -1,0 -2,-1 -1,0 -1,0 -2,-1 0,0 -2,0 -2,0 -2,0 -4,-1 -5,-1 0,0 -1,0 -1,0 0,0 -1,0 -1,0l-1 -1c0,0 -1,0 -1,-1 0,0 -1,-1 -1,-1 1,0 1,0 2,-1 1,-1 2,-1 2,-2 0,0 0,0 0,0 0,0 0,0 0,0l0 -1c0,-1 1,-1 2,-1 -2,0 -2,0 -2,0 -2,-1 -3,0 -4,-1 -1,0 -1,-1 -1,-1 0,0 1,-1 1,-1 1,0 2,-1 3,-1 1,-1 3,-1 5,-1 3,-1 3,0 6,0l5 -1c2,-1 4,-1 8,-1 1,1 2,0 3,1 0,0 1,1 2,1 0,0 0,0 1,0 1,0 2,0 3,1 1,0 1,1 2,1 1,0 0,0 1,0 0,0 -4,0 -5,0 -1,0 -2,0 -2,0 -1,0 -1,0 -2,0l-1 0c4,0 2,0 3,0 0,0 1,0 1,0l0 2c0,0 1,-1 1,-1 0,-1 0,-1 0,-1 3,0 13,0 14,1 0,0 1,1 1,1l1 1c1,0 1,0 2,1l2 1c0,0 0,0 1,1l1 0c0,0 1,0 1,0 1,0 1,0 1,0 -2,0 -7,1 -9,2 -1,0 0,0 0,0 1,0 1,0 2,0 2,0 2,0 3,1l1 1 -1 2c0,0 1,-1 1,-1 0,0 0,-1 0,-1 1,0 2,0 3,0 2,0 1,0 3,0 0,0 0,0 1,0 0,0 0,0 0,0 0,0 0,0 0,0 0,0 0,0 0,0l1 0c0,0 -1,1 0,1l0 -1c0,0 0,0 1,-1 1,0 2,0 2,0 0,0 1,1 1,1 0,0 -1,0 0,1 0,0 1,1 1,1 -1,0 -2,0 -3,0 0,0 -1,-1 -1,-1 0,0 0,1 1,1 -1,0 -1,1 -2,1 -2,1 -4,0 -7,2l-1 0c-2,1 -2,-1 -2,-1 0,-1 -1,-1 -1,-2 0,0 0,0 0,0 0,0 0,0 0,0 -1,0 0,-1 -1,-1 -1,-1 0,-1 0,-2 0,-1 -1,-2 0,-3 -1,0 -1,1 -1,1 0,0 0,1 0,1 1,0 0,0 0,1 0,0 0,1 0,1 0,1 0,1 1,2l-2 0c0,0 0,0 1,0 1,0 2,1 2,1 1,2 0,1 -1,2l2 0c0,0 1,0 1,-1 0,0 1,0 1,0 0,0 1,0 1,0 0,0 0,0 1,0 1,0 1,0 3,-1 0,1 2,1 3,2l1 0c0,-1 -2,-1 -2,-2 0,0 -1,0 -1,0 1,0 2,0 2,-1 1,0 2,0 3,-1 0,0 1,-1 1,-1 2,0 5,1 7,2 3,0 3,0 6,-1 1,0 2,0 3,0 1,0 4,0 6,0 1,0 2,0 3,0 3,0 6,0 8,1 0,0 1,0 1,0 0,0 1,0 1,0l0 1 1 0c0,-2 2,-2 2,-3 1,-1 0,-2 1,-3 2,-1 6,-1 9,-1 2,0 2,0 3,0 0,1 1,1 2,2 0,0 0,0 1,0 1,0 4,3 3,3 0,1 -1,0 -3,1 -1,0 -1,0 -2,0l1 0c0,0 -1,1 -1,1l0 0c0,0 1,-1 1,-1l1 0c1,0 1,0 1,0 1,-1 0,-2 -1,-3 1,0 1,0 2,0 2,0 4,-1 5,-1 2,-1 3,-1 5,0l1 0c0,0 0,0 0,0 -1,0 -3,1 -3,1 0,0 0,1 0,1l1 1c-1,-1 -2,-1 -1,-2 0,0 1,0 2,-1 2,0 3,0 5,0 2,0 4,0 5,0 0,0 0,0 1,0l1 0c-1,1 0,0 -2,1 -1,0 -2,2 -2,2 0,1 1,1 0,1l1 0 0 0c1,0 2,0 2,0 1,0 0,0 1,0 1,0 1,0 2,0 0,0 0,0 1,0l1 0c0,0 0,0 0,0 0,0 0,-1 -3,0 -1,0 -3,0 -4,0 0,0 0,0 1,-1 0,-1 0,-1 1,-2 2,-1 0,0 9,0 1,0 4,0 4,0 0,0 1,0 2,0 1,0 1,0 2,0 3,0 5,0 8,1 3,0 6,0 8,1 0,0 0,0 0,0 0,0 0,0 0,0 0,0 0,0 0,0l1 -1c2,-2 -2,-2 2,-3 1,0 1,0 1,0 -1,0 -1,0 -2,0 -1,0 0,0 -1,1 0,0 0,0 0,0 0,0 0,0 0,-1 0,-1 0,-2 1,-3 0,-1 1,-1 2,-1 1,0 1,0 2,0 1,0 0,0 1,0l0 0c-2,0 -4,2 -7,0 0,0 0,0 -1,0 -1,-1 -1,0 -2,-1 0,0 -2,-1 -2,-1 -1,-1 1,-2 1,-2 1,-1 1,-2 4,-2 0,0 -1,1 0,1 0,0 0,0 0,0 0,-1 -1,-1 2,-2 2,0 3,0 5,0l0 0c-1,0 -4,-1 -5,-1 -2,-1 -2,-1 -3,-2 -1,-1 -2,-1 -4,-2 -1,-1 -2,-1 -2,-3 5,0 6,0 10,0 1,0 2,0 3,0l0 0c-2,0 -1,0 -3,0 -3,1 -3,0 -5,0 0,0 -1,0 -1,0 -1,0 -2,0 -3,0 0,0 1,-1 1,-2 0,-1 0,-1 0,-2 1,1 -3,3 2,3 -1,0 -2,0 -2,-1 1,-2 2,-1 1,-3 -1,-2 -3,-1 -5,-1 0,-1 4,-3 9,-2 3,1 3,1 3,1 0,0 0,0 1,0 -1,0 -1,0 -2,0 0,0 -1,0 -1,0 -1,0 -2,0 -3,0 1,0 2,0 2,0 -1,0 -4,0 -5,0 -1,0 -1,0 -1,0 0,0 -1,0 -1,0 0,0 0,0 0,0 0,0 0,0 -1,0 0,0 0,0 -1,1 -1,0 -2,0 -4,0 -1,0 -2,0 -2,-1 0,-1 1,-1 1,-2 0,-1 -3,-2 -2,-3 0,-1 3,-1 3,-1 0,0 0,0 0,0 1,0 2,-1 3,-1 3,0 3,1 6,1l3 -1c2,-1 2,-1 4,0 0,0 0,0 -1,0 0,0 0,0 0,0l0 0c1,0 2,-1 3,0 1,0 2,0 1,1 0,0 -1,1 1,2 2,1 1,1 1,2 0,0 0,0 0,0 0,0 0,0 0,0 0,0 0,0 0,0 0,-1 -2,-1 -2,-2 0,-1 1,-1 1,-2 0,0 -1,-1 -1,-1 1,0 1,0 2,-1 1,0 1,-1 2,-1l0 0c-2,0 -3,1 -4,1l-1 0c-1,0 0,-1 0,-1 1,-1 -2,-2 -3,-2l0 0c1,1 2,1 2,2 0,0 0,1 -1,1 -1,0 -3,0 -4,1 0,0 0,0 -1,0 -1,0 -3,1 -5,0 -1,-1 -2,-1 -4,0 1,-1 4,-3 6,-4l1 0c0,0 0,0 1,0 1,-1 2,-1 2,-2 0,0 0,-1 1,-1 0,1 2,1 2,1 1,0 1,0 1,0 0,0 1,0 1,0 -1,0 -1,0 -2,-1 -1,0 -2,-1 -2,-1 1,0 1,-1 1,-2 2,0 6,0 8,0l0 0c-2,0 -5,0 -8,0 0,-1 -1,-1 0,-2 1,-1 3,-2 4,-2 1,0 1,-1 3,-1l0 -2c-1,0 -1,0 -2,1l-2 1c-1,0 -1,0 -2,1l-1 1c0,0 0,0 0,0 -2,-1 -1,-1 -4,-1 -1,0 -2,0 -3,0 -1,0 -4,-2 -3,-3 0,0 1,-1 1,-1 1,-1 1,0 1,-1 3,0 5,1 7,0 -1,0 -3,0 -4,0 -1,0 -2,0 -4,0 0,0 0,0 1,-1 0,0 0,0 0,-1 -1,0 -1,-1 -2,-1 0,0 2,-1 3,-1 -2,0 -2,1 -3,1 -1,0 -1,0 -2,0 -2,-1 -3,-1 -3,-2l-1 0c0,1 1,1 1,1 0,0 0,0 1,1 0,0 1,0 1,0 1,0 4,-1 3,2 -1,0 -3,0 -4,0l-2 0c-1,0 -1,1 -4,0 -1,0 -1,0 -2,0 -1,0 -2,0 -2,0 0,0 0,0 0,0l1 0c7,0 5,-1 7,-1 1,0 2,0 3,0 2,1 -4,1 2,4 1,1 1,1 4,1 3,0 2,0 4,1 0,0 -1,0 -1,1 0,0 -1,1 -1,1 -2,0 -4,0 -6,0 -2,0 -5,1 -6,0 0,0 0,0 1,0 -1,0 -1,0 -2,0 -1,0 -2,0 -3,0 -2,0 -3,-1 -5,-1 1,0 2,0 2,0 -1,0 -5,0 -6,0 -2,0 -4,1 -5,0 -1,-1 1,-2 2,-2 0,0 1,0 1,0 1,0 1,-1 4,-3 1,0 2,-1 3,-1 0,0 1,0 1,0l2 -1c0,-1 -1,-1 -1,-3 -1,-2 -1,0 0,-3 2,0 4,0 6,0 1,0 2,0 3,0l2 1c-1,0 -1,0 -1,1l0 0c0,0 0,0 0,0 0,0 0,0 0,0 0,0 0,0 1,0 1,0 3,1 4,1 2,1 4,0 6,0 2,0 4,0 5,1 1,1 2,2 3,2l0 -2 -3 -1c-3,-1 -7,-1 -10,-1 -2,0 -2,0 -2,-1 -1,0 -2,-1 -3,-1 -1,0 -2,-1 -3,-1 -2,0 -5,0 -3,-1 2,-1 4,-1 6,-2 0,0 1,0 2,-1 1,0 5,-1 6,0 1,0 3,1 4,1 0,0 0,0 0,0l-5 0c0,0 0,0 0,0 1,0 2,0 3,0 2,0 3,0 5,0 1,0 1,0 2,0l0 0c0,0 0,0 0,0 0,0 0,0 1,0l1 0 0 0 -1 0c-2,-1 -7,-1 -7,-1l-1 0c-2,0 -5,0 -7,0 0,0 1,-1 1,-1 0,0 1,-1 1,-1 1,-1 1,-2 2,-3 2,-2 4,-1 5,-1l6 1 0 0c-1,0 -5,-1 -6,-1 -2,-1 -1,-1 0,-2 0,0 1,-1 1,-1 0,0 1,-1 2,-1 1,0 2,0 3,0l0 -1c-5,0 -4,0 -5,0 0,-1 -1,-1 -1,-1 0,-1 1,-1 1,-1 1,-1 0,-2 2,-3 1,0 2,0 3,0l0 0 -3 0c0,0 0,-1 0,-1 0,0 0,-1 1,-1 0,-1 -1,-1 -1,-2 0,0 2,-1 3,-1 0,0 1,0 1,0l0 0c-2,0 -3,1 -5,1 -3,0 -3,0 -5,1 -3,-1 -3,-2 -5,-2 -1,0 -2,0 -4,0 -6,0 -4,-1 -2,-2 1,-1 1,-1 0,-2 -1,-1 -4,-2 -5,-2 0,0 0,0 0,0 0,0 0,0 -1,0 -1,0 -3,0 -4,0l-1 0 -1 0c1,0 2,1 4,1 2,0 4,1 6,1 1,0 3,1 3,2 -1,0 -1,1 -2,1 -1,0 -1,1 -2,1 -1,0 -1,0 -3,0 -2,0 -3,0 -5,0 0,0 -1,0 -1,0 -1,0 -3,2 -4,2 -1,0 -1,0 -1,0 -2,-1 -3,-2 -4,-3 0,0 -1,0 -1,0 -1,-1 -1,-4 0,-4l3 -1c1,0 2,0 2,-1l-1 0c-1,0 -5,1 -6,1 -3,0 -3,1 -3,1 0,0 0,0 -1,0 -2,1 -3,0 -3,0 -1,0 -1,0 -1,0 -3,-1 -4,-1 -7,-1 -1,0 -1,-1 -1,-2l0 0c0,1 1,1 1,2 -1,0 -2,1 -2,1 -1,3 1,3 -1,6 -1,0 -1,-1 -2,-1l-5 -1c-2,0 -3,-1 -3,-1 0,-1 2,-2 2,-2 0,0 0,0 0,0 1,0 1,0 1,0l-1 0c0,0 0,0 -1,0 0,-1 0,-1 1,-2 1,-1 0,-1 1,-2l-1 0c1,1 0,1 0,2 0,1 -1,1 -1,2 0,1 0,1 -1,2 0,0 -1,1 -1,1 -1,0 -1,0 -2,1 -2,1 -3,1 -5,1 -1,0 -4,1 -5,0 -2,-2 -3,-1 -3,-2 0,0 0,-1 0,-2 1,-1 2,-1 3,-1l6 -1c3,0 4,1 4,-1 0,1 0,1 -1,2 -1,0 -1,0 -3,0 -1,0 -2,0 -3,0 1,-1 1,-2 2,-3 1,0 4,0 5,0 0,0 0,0 0,0 0,0 0,0 1,0l-1 0c-1,1 -3,1 -5,1l0 -1 -1 0c-1,3 -2,3 -7,4 -3,0 -1,0 -5,-1 -1,0 -1,-1 -2,-1 -3,0 -2,-1 -3,-1 -1,0 -1,0 -2,0 -2,0 -2,-1 -2,-1l-1 0c0,0 0,0 0,0 0,0 0,0 0,0 1,1 3,0 5,1l-1 0c-2,1 -1,0 -4,0 -2,0 -4,0 -6,0 -1,0 -1,0 -3,0 -1,0 -2,0 -3,0 -1,0 -2,-2 -3,-2l-1 0c0,0 1,1 1,1 0,0 0,0 1,1 0,0 0,0 1,1 0,0 1,1 0,1 0,1 -2,2 -2,3 -6,0 -4,-1 -7,0 -2,0 -5,0 -6,1 0,-1 -1,-2 -1,-3 -1,-1 -2,-1 -3,-2 0,0 -1,0 -1,0 1,0 2,-1 3,-1 3,-1 3,0 3,-1l-2 0c-1,0 -3,1 -5,1 -4,1 -2,1 -5,2 -1,1 -2,1 -2,2l-1 1c0,0 -1,1 -1,1 -1,0 -4,-1 -4,-1 0,0 0,0 -1,-1 0,0 0,0 -1,0 -1,0 -2,-1 -2,-1 -1,-1 -1,-1 0,-2 0,0 0,-1 1,-2 1,0 1,1 1,1 1,0 2,0 3,0 1,0 3,0 4,0 1,0 1,1 2,1 -1,0 -1,-1 -2,-1 -1,0 -3,0 -4,0 -2,0 -2,0 -3,0 -1,-1 -1,-1 -1,-2l-1 0c1,1 0,2 0,3 -1,0 -3,0 -4,0 -1,0 -2,0 -2,0 -1,0 0,0 -2,0 0,1 -1,1 -3,1 -3,0 -4,0 -6,-1 -1,-1 -1,-1 -3,0 -4,0 -7,1 -9,0 -1,-1 0,-1 0,-2l-1 0c0,0 -1,1 -2,1 -2,0 -7,0 -8,0 -1,0 -3,0 -4,0z"/>
   <path class="fil6" d="M27 4l148 0c10,0 18,4 18,9l0 73c0,5 -8,9 -18,9l-148 0c-10,0 -18,-4 -18,-9l0 -73c0,-5 8,-9 18,-9zm0 -4l148 0c15,0 27,6 27,13l0 73c0,7 -12,13 -27,13l-148 0c-15,0 -27,-6 -27,-13l0 -73c0,-7 12,-13 27,-13z"/>
  </g>
 </g>
</svg>
